<?xml version="1.0" standalone="no"?>
<!DOCTYPE svg PUBLIC "-//W3C//DTD SVG 20010904//EN"
 "http://www.w3.org/TR/2001/REC-SVG-20010904/DTD/svg10.dtd">
<svg version="1.0" xmlns="http://www.w3.org/2000/svg"
 width="1823.000000pt" height="1823.000000pt" viewBox="0 0 1823.000000 1823.000000"
 preserveAspectRatio="xMidYMid meet">
<metadata>
Created by potrace 1.11, written by Peter Selinger 2001-2013
</metadata>
<g transform="translate(0.000000,1823.000000) scale(0.100000,-0.100000)"
fill="#000000" stroke="none">
<path d="M380 14140 c-10 -19 -12 -19 -37 -2 -15 9 -24 12 -20 6 8 -14 -15
-24 -43 -19 -11 2 -20 -1 -20 -6 0 -6 -4 -8 -9 -4 -5 3 -12 1 -16 -5 -4 -6
-11 -7 -17 -4 -7 4 -8 2 -4 -4 4 -7 2 -12 -3 -12 -12 0 -69 -55 -89 -85 -11
-18 -11 -18 -2 3 6 12 8 22 5 22 -9 0 -64 -123 -59 -132 3 -4 0 -17 -7 -29 -9
-17 -8 -20 3 -14 10 6 11 5 1 -6 -16 -16 -17 -33 -1 -23 7 5 8 3 2 -7 -13 -21
-14 -39 -1 -39 7 0 5 -5 -3 -10 -9 -6 -10 -10 -3 -10 6 0 10 -9 8 -20 -2 -11
1 -20 7 -20 6 0 8 -9 5 -20 -3 -11 -1 -18 4 -14 8 5 13 -9 10 -28 0 -5 3 -8 9
-8 5 0 10 -7 10 -15 0 -8 11 -22 25 -31 14 -9 22 -21 18 -28 -3 -6 -3 -8 2 -4
11 11 36 -12 28 -25 -3 -5 -1 -7 5 -3 6 3 17 0 25 -8 8 -8 17 -12 20 -9 4 3
18 -2 33 -11 14 -10 28 -15 32 -12 3 3 14 -2 24 -11 18 -16 18 -16 12 3 -7 17
-6 17 9 6 9 -8 21 -11 27 -7 5 3 10 1 10 -6 0 -9 3 -9 14 0 10 9 16 9 21 1 5
-8 11 -8 21 1 10 8 14 8 14 0 0 -6 5 -11 11 -11 5 0 7 5 3 12 -4 7 -3 8 4 4
19 -12 53 -16 47 -5 -4 5 -1 9 4 9 6 0 11 -5 11 -11 0 -8 6 -7 17 2 13 11 17
11 20 2 3 -7 9 -13 14 -13 6 0 8 4 5 8 -2 4 4 8 15 8 10 0 19 -4 19 -8 0 -5
10 -4 21 3 12 6 19 7 16 2 -4 -5 0 -10 8 -10 8 0 12 4 9 9 -3 4 0 8 5 8 6 0
11 -5 11 -12 0 -9 3 -9 11 -1 9 9 18 8 38 -4 22 -13 23 -13 8 0 -17 14 -16 15
7 13 15 0 26 -5 26 -10 0 -5 6 -3 14 3 10 9 16 9 21 1 5 -8 11 -8 21 1 10 8
14 8 14 0 0 -6 5 -11 11 -11 5 0 7 5 3 12 -4 7 -3 8 4 4 19 -12 53 -16 47 -5
-4 5 -1 9 4 9 6 0 11 -5 11 -12 0 -9 3 -9 11 -1 9 9 18 8 38 -4 22 -13 23 -13
8 0 -17 14 -16 15 7 13 15 0 26 -5 26 -10 0 -5 6 -3 14 3 10 9 16 9 21 1 5 -8
11 -8 21 1 10 8 14 8 14 0 0 -6 5 -11 11 -11 5 0 7 5 3 12 -4 7 -3 8 4 4 19
-12 53 -16 47 -5 -4 5 -1 9 4 9 6 0 11 -5 11 -11 0 -8 6 -7 17 2 13 11 17 11
20 2 3 -7 9 -13 14 -13 6 0 8 4 5 8 -2 4 4 8 15 8 10 0 19 -4 19 -8 0 -5 10
-4 21 3 12 6 19 7 16 2 -4 -5 0 -10 8 -10 8 0 12 4 9 9 -3 4 0 8 5 8 6 0 11
-5 11 -12 0 -9 3 -9 11 -1 9 9 18 8 38 -4 22 -13 23 -13 8 0 -17 14 -16 15 7
13 15 0 26 -5 26 -10 0 -5 6 -3 14 3 10 9 16 9 21 1 5 -8 11 -8 21 1 10 8 14
8 14 0 0 -6 5 -11 11 -11 5 0 7 5 3 12 -4 7 -3 8 4 4 19 -12 53 -16 47 -5 -4
5 -1 9 4 9 6 0 11 -5 11 -11 0 -5 5 -7 12 -3 18 11 78 11 78 1 0 -5 11 -2 25
7 14 9 25 13 24 9 -3 -20 2 -24 16 -13 12 10 13 7 5 -19 -5 -19 -5 -29 1 -26
13 9 11 -9 -3 -24 -8 -9 -8 -11 -2 -8 7 4 14 0 17 -8 4 -10 1 -12 -10 -8 -10
4 -14 2 -10 -5 10 -15 17 -93 8 -87 -4 2 -8 -2 -8 -10 0 -8 4 -12 8 -10 4 3
10 -2 13 -11 4 -11 2 -15 -7 -11 -18 7 -15 -26 4 -49 8 -10 9 -15 3 -11 -7 4
-14 -3 -16 -18 -3 -13 -2 -22 2 -20 5 3 11 -2 14 -11 4 -11 2 -15 -7 -11 -7 3
-13 -3 -13 -13 0 -10 4 -16 8 -14 4 3 8 -2 8 -11 0 -10 -5 -13 -12 -9 -7 5 -8
3 -2 -7 5 -8 8 -33 6 -57 -1 -26 2 -41 8 -37 6 3 7 -1 4 -9 -3 -9 -11 -13 -18
-9 -7 4 -7 2 1 -8 10 -12 10 -18 0 -29 -8 -8 -8 -11 -1 -7 7 4 14 0 17 -8 4
-10 1 -12 -10 -8 -10 4 -14 2 -10 -5 10 -15 17 -93 8 -87 -4 2 -8 -2 -8 -10 0
-8 4 -12 8 -10 3 3 9 -6 11 -20 3 -13 2 -22 -2 -20 -5 3 -10 -2 -14 -10 -3 -8
-1 -15 4 -15 6 0 10 -5 10 -11 0 -6 -6 -7 -12 -2 -7 4 -5 -6 6 -21 10 -16 13
-25 7 -22 -14 9 -14 -24 -1 -59 5 -14 6 -24 1 -21 -5 3 -11 -1 -15 -9 -3 -8
-1 -15 4 -15 6 0 10 -5 10 -11 0 -6 -6 -7 -12 -2 -7 4 -5 -6 6 -21 10 -16 14
-26 8 -22 -5 3 -12 -5 -14 -19 -3 -13 -2 -22 2 -20 5 3 11 -2 14 -11 4 -11 2
-15 -7 -11 -18 7 -15 -26 4 -49 8 -10 9 -15 3 -11 -7 4 -14 -3 -16 -18 -3 -13
-2 -22 2 -20 5 3 11 -2 14 -11 4 -11 2 -15 -7 -11 -7 3 -13 -3 -13 -13 0 -10
4 -16 8 -14 4 3 8 -2 8 -11 0 -10 -5 -13 -12 -9 -7 5 -8 3 -2 -7 5 -8 8 -33 6
-57 -1 -26 2 -41 8 -37 6 3 7 -1 4 -9 -3 -9 -11 -13 -18 -9 -6 3 -2 -4 9 -17
15 -18 16 -22 4 -18 -20 8 -19 -23 2 -48 8 -10 9 -15 3 -11 -7 4 -14 -3 -16
-18 -3 -13 -2 -22 2 -20 5 3 11 -2 14 -11 4 -11 2 -15 -7 -11 -7 3 -13 -3 -13
-13 0 -10 4 -16 8 -14 4 3 8 -2 8 -11 0 -10 -5 -13 -12 -9 -7 5 -8 3 -2 -7 5
-8 8 -33 6 -57 -1 -26 2 -41 8 -37 6 3 7 -1 4 -9 -3 -9 -11 -13 -18 -9 -7 4
-7 2 1 -8 10 -12 10 -18 0 -29 -8 -8 -8 -11 -1 -7 7 4 14 0 17 -8 4 -10 1 -12
-10 -8 -10 4 -14 2 -10 -5 10 -15 17 -93 8 -87 -4 2 -8 -2 -8 -10 0 -8 4 -12
8 -10 4 3 10 -2 13 -11 4 -11 2 -15 -7 -11 -18 7 -15 -26 4 -49 8 -10 9 -15 3
-11 -7 4 -14 -3 -16 -18 -3 -13 -2 -22 2 -20 5 3 11 -2 14 -11 4 -11 2 -15 -7
-11 -7 3 -13 -3 -13 -13 0 -10 4 -16 8 -14 4 3 8 -2 8 -11 0 -10 -5 -13 -12
-9 -7 5 -8 3 -2 -7 5 -8 8 -33 6 -57 -1 -26 2 -41 8 -37 6 3 7 -1 4 -9 -3 -9
-11 -13 -18 -9 -7 4 -7 2 1 -8 10 -12 10 -18 0 -29 -8 -8 -8 -11 -1 -7 7 4 14
0 17 -8 4 -10 1 -12 -10 -8 -10 4 -14 2 -10 -5 10 -15 17 -93 8 -87 -4 2 -8
-2 -8 -10 0 -8 4 -12 9 -9 13 8 10 -10 -4 -25 -8 -9 -8 -11 -2 -8 7 4 14 0 17
-8 4 -10 1 -12 -10 -8 -10 4 -14 2 -10 -5 10 -15 17 -93 8 -87 -4 2 -8 -2 -8
-10 0 -8 4 -12 8 -10 4 3 10 -2 13 -11 4 -11 2 -15 -7 -11 -18 7 -15 -26 4
-49 8 -10 9 -15 3 -11 -7 4 -14 -3 -16 -18 -3 -13 -2 -22 2 -20 5 3 11 -2 14
-11 4 -11 2 -15 -7 -11 -7 3 -13 -3 -13 -13 0 -10 4 -16 8 -14 4 3 8 -2 8 -11
0 -10 -5 -13 -12 -9 -7 5 -8 3 -2 -7 5 -8 8 -33 6 -57 -1 -26 2 -41 8 -37 6 3
7 -1 4 -9 -3 -9 -11 -13 -18 -9 -7 4 -7 2 1 -8 10 -12 10 -18 0 -29 -8 -8 -8
-11 -1 -7 7 4 14 0 17 -8 4 -10 1 -12 -10 -8 -10 4 -14 2 -10 -5 10 -15 17
-93 8 -87 -4 2 -8 -2 -8 -10 0 -8 4 -12 8 -10 3 3 9 -6 11 -20 3 -13 2 -22 -2
-20 -5 3 -10 -2 -14 -10 -3 -8 -1 -15 4 -15 6 0 10 -5 10 -11 0 -6 -6 -7 -12
-2 -7 4 -5 -6 6 -21 10 -16 13 -25 7 -22 -14 9 -14 -24 -1 -59 5 -14 6 -24 1
-21 -5 3 -11 -1 -15 -9 -3 -8 -1 -15 4 -15 6 0 10 -5 10 -11 0 -6 -6 -7 -12
-2 -7 4 -5 -6 6 -21 10 -16 14 -26 8 -22 -5 3 -12 -5 -14 -19 -3 -13 -1 -22 3
-19 13 8 11 -10 -3 -25 -8 -9 -8 -11 -2 -8 7 4 14 0 17 -8 4 -10 1 -12 -10 -8
-10 4 -14 2 -10 -5 10 -15 17 -93 8 -87 -4 2 -8 -2 -8 -10 0 -8 4 -12 8 -10 4
3 10 -2 13 -11 4 -11 2 -15 -7 -11 -18 7 -15 -26 4 -49 8 -10 9 -15 3 -11 -7
4 -14 -3 -16 -18 -3 -13 -2 -22 2 -20 5 3 11 -2 14 -11 4 -11 2 -15 -7 -11 -7
3 -13 -3 -13 -13 0 -10 4 -16 8 -14 4 3 8 -2 8 -11 0 -10 -5 -13 -12 -9 -7 5
-8 3 -2 -7 5 -8 8 -33 6 -57 -1 -26 2 -41 8 -37 6 3 7 -1 4 -9 -3 -9 -11 -13
-18 -9 -7 4 -7 2 1 -8 10 -12 10 -18 0 -29 -8 -8 -8 -11 -1 -7 7 4 14 0 17 -8
4 -10 1 -12 -10 -8 -10 4 -14 2 -10 -5 10 -15 17 -93 8 -87 -4 2 -8 -2 -8 -10
0 -8 4 -12 8 -10 3 3 9 -6 11 -20 3 -13 2 -22 -2 -20 -5 3 -10 -2 -14 -10 -3
-8 -1 -15 4 -15 6 0 10 -5 10 -11 0 -6 -6 -7 -12 -2 -7 4 -5 -6 6 -21 10 -16
13 -25 7 -22 -14 9 -14 -24 -1 -59 5 -14 6 -24 1 -21 -5 3 -11 -1 -15 -9 -3
-8 -1 -15 4 -15 6 0 10 -5 10 -11 0 -6 -6 -7 -12 -2 -7 4 -5 -6 6 -21 10 -16
14 -26 8 -22 -5 3 -12 -5 -14 -19 -3 -13 -2 -22 2 -20 4 3 10 -6 12 -20 3 -13
2 -22 -2 -20 -5 3 -10 -2 -14 -10 -3 -8 -1 -15 4 -15 6 0 10 -5 10 -11 0 -6
-6 -7 -12 -2 -7 4 -5 -6 6 -21 10 -16 13 -25 7 -22 -14 9 -14 -24 -1 -59 5
-14 6 -24 1 -21 -5 3 -11 -1 -15 -9 -3 -8 -1 -15 4 -15 6 0 10 -5 10 -11 0 -6
-6 -7 -12 -2 -7 4 -5 -6 6 -21 10 -16 14 -26 8 -22 -5 3 -12 -5 -14 -19 -3
-13 -1 -22 3 -19 13 8 11 -10 -3 -25 -8 -9 -8 -11 -2 -8 7 4 14 0 17 -8 4 -10
1 -12 -10 -8 -10 4 -14 2 -10 -5 10 -15 17 -93 8 -87 -4 2 -8 -2 -8 -10 0 -8
4 -12 8 -10 4 3 10 -2 13 -11 4 -11 2 -15 -7 -11 -18 7 -15 -26 4 -49 8 -10 9
-15 3 -11 -7 4 -14 -3 -16 -18 -3 -13 -2 -22 2 -20 5 3 11 -2 14 -11 4 -11 2
-15 -7 -11 -7 3 -13 -3 -13 -13 0 -10 4 -16 8 -14 4 3 8 -2 8 -11 0 -10 -5
-13 -12 -9 -7 5 -8 3 -2 -7 5 -8 8 -33 6 -57 -1 -26 2 -41 8 -37 6 3 7 -1 4
-9 -3 -9 -11 -13 -18 -9 -7 4 -7 2 1 -8 10 -12 10 -18 0 -29 -8 -8 -8 -11 -1
-7 7 4 14 0 17 -8 4 -10 1 -12 -10 -8 -10 4 -14 2 -10 -5 10 -15 17 -93 8 -87
-4 2 -8 -2 -8 -10 0 -8 4 -12 8 -10 3 3 9 -6 11 -20 3 -13 2 -22 -2 -20 -5 3
-10 -2 -14 -10 -3 -8 -1 -15 4 -15 6 0 10 -5 10 -11 0 -6 -6 -7 -12 -2 -7 4
-5 -6 6 -21 10 -16 13 -25 7 -22 -14 9 -14 -24 -1 -59 5 -14 6 -24 1 -21 -5 3
-11 -1 -15 -9 -3 -8 -1 -15 4 -15 6 0 10 -5 10 -11 0 -6 -6 -7 -12 -2 -7 4 -5
-6 6 -21 10 -16 14 -26 8 -22 -5 3 -12 -5 -14 -19 -3 -13 -1 -22 3 -19 13 8
11 -10 -3 -25 -8 -9 -8 -11 -2 -8 7 4 14 0 17 -8 4 -10 1 -12 -10 -8 -10 4
-14 2 -10 -5 10 -15 17 -93 8 -87 -4 2 -8 -2 -8 -10 0 -8 4 -12 8 -10 4 3 10
-2 13 -11 4 -11 2 -15 -7 -11 -18 7 -15 -26 4 -49 8 -10 9 -15 3 -11 -7 4 -14
-3 -16 -18 -3 -13 -2 -22 2 -20 5 3 11 -2 14 -11 4 -11 2 -15 -7 -11 -7 3 -13
-3 -13 -13 0 -10 4 -16 8 -14 4 3 8 -2 8 -11 0 -10 -5 -13 -12 -9 -7 5 -8 3
-2 -7 5 -8 8 -33 6 -57 -1 -26 2 -41 8 -37 6 3 7 -1 4 -9 -3 -9 -11 -13 -18
-9 -7 4 -7 2 1 -8 10 -12 10 -18 0 -29 -8 -8 -8 -11 -1 -7 7 4 14 0 17 -8 4
-10 1 -12 -10 -8 -10 4 -14 2 -10 -5 10 -15 17 -93 8 -87 -4 2 -8 -2 -8 -10 0
-8 4 -12 9 -9 13 8 10 -10 -5 -25 -7 -9 -7 -11 -1 -8 7 4 14 0 17 -8 4 -10 1
-12 -10 -8 -10 4 -14 2 -10 -5 10 -15 17 -93 8 -87 -4 2 -8 -2 -8 -10 0 -8 4
-12 8 -10 4 3 10 -2 13 -11 4 -11 2 -15 -7 -11 -18 7 -15 -26 4 -49 8 -10 9
-15 3 -11 -7 4 -14 -3 -16 -18 -3 -13 -2 -22 2 -20 5 3 11 -2 14 -11 4 -11 2
-15 -7 -11 -7 3 -13 -3 -13 -13 0 -10 4 -16 8 -14 4 3 8 -2 8 -11 0 -10 -5
-13 -12 -9 -7 5 -8 3 -2 -7 5 -8 8 -33 6 -57 -1 -26 2 -41 8 -37 6 3 7 -1 4
-9 -3 -9 -11 -13 -18 -9 -7 4 -7 2 1 -8 10 -12 10 -18 0 -29 -8 -8 -8 -11 -1
-7 7 4 14 0 17 -8 4 -10 1 -12 -10 -8 -10 4 -14 2 -10 -5 10 -15 17 -93 8 -87
-4 2 -8 -2 -8 -10 0 -8 4 -12 8 -10 4 3 10 -2 13 -11 4 -11 2 -15 -7 -11 -18
7 -15 -26 4 -49 8 -10 9 -15 3 -11 -7 4 -14 -3 -16 -18 -3 -13 -2 -22 2 -20 5
3 11 -2 14 -11 4 -11 2 -15 -7 -11 -7 3 -13 -3 -13 -13 0 -10 4 -16 8 -14 4 3
8 -2 8 -11 0 -10 -5 -13 -12 -9 -7 5 -8 3 -2 -7 5 -8 8 -33 6 -57 -1 -26 2
-41 8 -37 6 3 7 -1 4 -9 -3 -9 -11 -13 -18 -9 -6 3 -2 -4 9 -17 15 -18 16 -22
4 -18 -20 8 -19 -23 2 -48 8 -10 9 -15 3 -11 -7 4 -14 -3 -16 -18 -3 -13 -2
-22 2 -20 5 3 11 -2 14 -11 4 -11 2 -15 -7 -11 -7 3 -13 -3 -13 -13 0 -10 4
-16 8 -14 4 3 8 -2 8 -11 0 -10 -5 -13 -12 -9 -7 5 -8 3 -2 -7 5 -8 8 -33 6
-57 -1 -26 2 -41 8 -37 6 3 7 -1 4 -9 -3 -9 -11 -13 -18 -9 -8 5 -8 3 0 -8 15
-20 26 -51 15 -45 -5 3 -11 -1 -15 -9 -3 -8 -1 -15 4 -15 6 0 10 -5 10 -11 0
-6 -6 -7 -12 -2 -7 4 -5 -6 6 -21 10 -16 13 -25 7 -22 -14 9 -14 -24 -1 -59 5
-14 6 -24 1 -21 -5 3 -11 -1 -15 -9 -3 -8 -1 -15 4 -15 6 0 10 -5 10 -11 0 -6
-6 -7 -12 -2 -7 4 -5 -6 6 -21 10 -16 14 -26 8 -22 -5 3 -12 -5 -14 -19 -3
-13 -1 -22 3 -19 13 8 11 -10 -3 -25 -8 -9 -8 -11 -2 -8 7 4 14 0 17 -8 4 -10
1 -12 -10 -8 -10 4 -14 2 -10 -5 10 -15 17 -93 8 -87 -4 2 -8 -2 -8 -10 0 -8
4 -12 8 -10 4 3 10 -2 13 -11 4 -11 2 -15 -7 -11 -18 7 -15 -26 4 -49 8 -10 9
-15 3 -11 -7 4 -14 -3 -16 -18 -3 -13 -2 -22 2 -20 5 3 11 -2 14 -11 4 -11 2
-15 -7 -11 -7 3 -13 -3 -13 -13 0 -10 4 -16 8 -14 4 3 8 -2 8 -11 0 -10 -5
-13 -12 -9 -7 5 -8 3 -2 -7 5 -8 8 -33 6 -57 -1 -26 2 -41 8 -37 6 3 7 -1 4
-9 -3 -9 -11 -13 -18 -9 -7 4 -7 2 1 -8 10 -12 10 -18 0 -29 -8 -8 -8 -11 -1
-7 7 4 14 0 17 -8 4 -10 1 -12 -10 -8 -10 4 -14 2 -10 -5 10 -15 17 -93 8 -87
-4 2 -8 -2 -8 -10 0 -8 4 -12 8 -10 3 3 9 -6 11 -20 3 -13 2 -22 -2 -20 -5 3
-10 -2 -14 -10 -3 -8 -1 -15 4 -15 6 0 10 -5 10 -11 0 -6 -6 -7 -12 -2 -7 4
-5 -6 6 -21 10 -16 13 -25 7 -22 -14 9 -14 -24 -1 -59 5 -14 6 -24 1 -21 -5 3
-11 -1 -15 -9 -3 -8 -1 -15 4 -15 6 0 10 -5 10 -11 0 -6 -6 -7 -12 -2 -7 4 -5
-6 6 -21 10 -16 14 -26 8 -22 -5 3 -12 -5 -14 -19 -3 -13 -1 -22 3 -19 5 3 9
0 9 -5 0 -6 -6 -11 -12 -11 -10 0 -9 -3 1 -9 10 -7 11 -13 2 -30 -7 -11 -14
-21 -17 -21 -3 0 -2 5 1 10 7 11 -8 14 -19 3 -3 -4 -15 -7 -25 -8 -13 -1 -17
3 -13 14 5 13 3 14 -9 5 -18 -15 -70 -15 -63 0 3 6 -1 3 -9 -7 -16 -19 -52
-13 -40 7 4 6 -1 5 -10 -3 -14 -11 -17 -11 -18 0 0 8 -4 5 -9 -6 -5 -11 -9
-14 -9 -7 -1 7 -6 10 -12 7 -6 -4 -23 -8 -39 -9 -21 -2 -27 2 -22 14 5 12 3
13 -9 4 -8 -6 -29 -12 -48 -12 -18 0 -36 -3 -39 -6 -3 -3 -14 2 -25 11 -11 10
-17 12 -13 6 4 -8 1 -13 -9 -13 -10 0 -14 5 -10 13 4 6 0 4 -8 -6 -16 -19 -52
-13 -40 7 4 6 -1 5 -10 -3 -14 -11 -17 -11 -18 0 0 8 -4 5 -9 -6 -5 -11 -9
-14 -9 -7 -1 7 -6 10 -12 7 -6 -4 -23 -8 -39 -9 -21 -2 -27 2 -22 14 5 12 3
13 -9 4 -18 -15 -70 -15 -63 0 3 6 -1 3 -9 -7 -16 -19 -52 -13 -40 7 4 6 -1 5
-10 -3 -14 -11 -17 -11 -18 0 0 8 -4 5 -9 -6 -5 -11 -9 -14 -9 -7 -1 7 -6 10
-12 7 -6 -4 -23 -8 -39 -9 -21 -2 -27 2 -22 14 5 12 3 13 -9 4 -18 -15 -70
-15 -63 0 3 6 -1 3 -9 -7 -16 -19 -52 -13 -40 7 4 6 -1 5 -10 -3 -14 -11 -17
-11 -18 0 0 8 -4 5 -9 -6 -5 -11 -9 -14 -9 -7 -1 7 -6 10 -12 7 -6 -4 -23 -8
-39 -9 -21 -2 -27 2 -22 14 5 12 3 13 -9 4 -18 -15 -70 -15 -63 0 3 6 -1 3 -9
-7 -16 -19 -52 -13 -40 7 4 6 -1 5 -10 -3 -14 -11 -17 -11 -18 0 0 8 -4 5 -9
-6 -5 -11 -9 -14 -9 -7 -1 9 -6 10 -19 3 -14 -7 -25 -6 -40 5 -13 9 -23 11
-27 4 -3 -5 -17 -10 -31 -10 -16 0 -23 -4 -18 -11 5 -8 2 -9 -11 -1 -14 7 -29
4 -60 -14 -24 -13 -46 -20 -50 -16 -5 4 -5 1 -1 -5 4 -7 3 -13 -2 -13 -15 0
-53 -41 -46 -51 3 -5 2 -9 -3 -8 -22 4 -35 -2 -30 -15 3 -8 -1 -17 -10 -20 -9
-4 -13 -14 -10 -26 3 -11 0 -18 -7 -17 -6 1 -10 -4 -8 -10 1 -7 -3 -13 -10
-13 -6 0 -8 -3 -5 -6 3 -4 2 -16 -4 -27 -7 -12 -7 -17 -1 -13 6 3 9 -4 8 -18
0 -13 -4 -22 -7 -20 -4 2 -6 -12 -5 -31 0 -19 5 -35 9 -35 5 0 5 -5 2 -10 -4
-6 0 -24 9 -40 9 -20 10 -28 3 -24 -7 3 -3 -3 9 -13 11 -10 19 -24 16 -31 -2
-6 2 -12 8 -12 7 0 10 -7 6 -16 -3 -8 -2 -13 2 -10 5 3 19 -8 32 -25 14 -16
30 -29 37 -29 7 0 13 -4 13 -10 0 -5 7 -10 15 -10 8 0 15 -4 15 -8 0 -9 9 -11
54 -15 13 -1 22 -6 19 -11 -3 -5 10 -7 30 -4 20 2 33 0 31 -4 -3 -5 9 -6 26
-3 19 3 29 2 26 -4 -7 -11 20 -8 31 4 4 4 2 5 -6 0 -9 -5 -12 -4 -7 3 4 6 13
9 21 6 8 -4 12 -11 9 -16 -4 -6 6 -2 22 8 26 17 28 17 15 1 -8 -10 -9 -17 -3
-17 6 0 14 5 18 11 4 8 9 7 15 -2 7 -11 9 -9 9 6 0 14 3 16 8 7 5 -7 18 -14
31 -17 12 -2 19 0 16 6 -4 5 -11 6 -17 3 -7 -4 -8 -2 -4 4 5 9 13 9 27 2 10
-6 19 -8 19 -4 0 3 8 0 17 -7 11 -10 14 -10 9 -1 -4 6 -3 12 1 12 5 0 15 -6
22 -12 9 -8 11 -8 8 -2 -8 14 20 27 28 14 4 -6 15 -6 28 2 20 10 21 10 8 -5
-15 -19 -1 -23 17 -5 9 9 12 9 12 -2 0 -9 5 -8 16 6 8 10 13 13 9 7 -3 -7 -3
-13 2 -14 4 0 16 -2 26 -4 9 -2 15 1 11 6 -3 5 -10 6 -16 3 -7 -4 -8 -2 -4 4
5 9 13 9 27 2 10 -6 19 -8 19 -4 0 3 8 0 17 -7 11 -10 14 -10 9 -1 -9 16 6 16
23 -1 9 -7 11 -7 8 -1 -8 14 20 27 28 14 4 -6 15 -6 28 2 20 10 21 10 8 -5
-15 -19 -1 -23 17 -5 9 9 12 9 12 -2 0 -9 5 -8 16 6 8 10 13 13 9 6 -3 -6 -3
-12 2 -13 4 0 16 -2 26 -4 9 -2 15 1 11 6 -3 5 -10 6 -16 3 -7 -4 -8 -2 -4 4
5 9 13 9 27 2 10 -6 19 -8 19 -4 0 3 8 0 17 -7 11 -10 14 -10 9 -1 -9 16 6 16
23 -1 9 -7 11 -7 8 -1 -8 14 20 27 28 14 4 -6 15 -6 28 2 20 10 21 10 8 -5
-15 -19 -1 -23 17 -5 9 9 12 9 12 -2 0 -9 5 -8 16 6 8 10 13 13 9 7 -3 -7 -3
-13 2 -14 4 0 16 -2 26 -4 9 -2 15 1 11 6 -3 5 -10 6 -16 3 -7 -4 -8 -2 -4 4
5 9 13 9 27 2 10 -6 19 -8 19 -4 0 3 8 0 17 -7 11 -10 14 -10 9 -2 -9 17 6 17
23 0 9 -7 11 -7 8 -1 -8 14 20 27 28 14 4 -6 15 -6 28 2 20 10 21 10 8 -5 -15
-19 -1 -23 17 -5 9 9 12 9 12 -2 0 -9 5 -8 16 6 8 10 13 13 9 7 -3 -7 -3 -13
2 -14 4 0 16 -2 26 -4 9 -2 15 1 11 6 -3 5 -10 6 -16 3 -7 -4 -8 -2 -4 4 5 9
13 9 27 2 10 -6 19 -8 19 -4 0 3 8 0 17 -7 11 -10 14 -10 9 -1 -9 16 6 16 23
0 9 -8 11 -8 8 -2 -8 14 20 27 28 14 4 -6 15 -6 28 2 20 10 21 10 8 -5 -15
-19 -1 -23 17 -5 9 9 12 9 12 -2 0 -9 5 -8 16 6 8 10 13 13 9 6 -3 -6 -3 -12
2 -13 4 0 16 -2 26 -4 9 -2 15 1 11 6 -3 5 -10 6 -16 3 -7 -4 -8 -2 -4 4 5 9
13 9 27 2 10 -6 19 -8 19 -4 0 3 8 0 17 -7 11 -10 14 -10 9 -1 -9 16 6 16 23
0 9 -8 11 -8 8 -2 -8 14 20 27 28 14 4 -6 15 -6 28 2 20 10 21 10 8 -5 -15
-19 -1 -23 17 -5 9 9 12 9 12 -2 0 -9 5 -8 16 6 8 10 13 14 10 8 -7 -15 27
-24 45 -13 8 5 22 6 33 3 10 -4 16 -2 13 3 -3 5 3 9 13 9 10 0 16 -4 14 -8 -3
-4 0 -8 5 -8 6 0 11 8 12 18 0 11 2 12 6 4 4 -10 8 -10 21 0 13 11 15 11 8 -2
-4 -9 -2 -8 7 2 8 10 17 15 20 11 4 -3 7 -1 7 5 0 7 6 12 14 12 8 0 34 18 57
40 24 22 47 40 52 40 4 0 6 4 2 9 -3 5 1 16 9 24 8 8 12 17 9 21 -4 3 -2 6 3
6 5 0 10 10 11 22 1 11 6 24 10 27 5 3 8 16 7 28 -1 13 3 23 8 23 5 0 6 5 2
12 -10 16 -12 58 -3 64 4 2 5 14 1 26 -4 16 -2 19 9 13 11 -7 12 -6 2 7 -7 8
-10 18 -6 21 3 4 2 7 -4 7 -8 0 -10 32 -3 50 1 3 1 13 0 24 -1 10 3 15 8 12 6
-4 8 2 5 14 -3 11 -9 18 -12 15 -4 -2 -8 2 -8 10 0 8 4 12 9 9 4 -3 8 2 8 11
0 9 -4 14 -8 11 -5 -3 -9 1 -9 9 0 8 4 12 9 9 4 -3 8 2 8 11 0 9 -4 14 -8 11
-5 -3 -9 1 -9 9 0 8 4 12 9 9 4 -3 8 2 8 11 0 9 -4 14 -9 11 -11 -7 -9 13 2
32 5 6 4 12 -1 12 -7 0 -8 33 -2 50 1 3 1 13 0 24 -1 13 2 16 12 10 10 -6 11
-5 1 8 -7 8 -10 18 -6 21 3 4 2 7 -3 7 -8 0 -11 72 -4 90 1 3 1 13 0 24 -1 13
2 16 12 10 10 -6 11 -5 1 8 -7 8 -10 18 -6 21 3 4 1 7 -6 7 -7 0 -9 5 -6 10 4
6 11 8 16 5 5 -3 6 1 3 9 -3 9 -9 14 -13 11 -4 -2 -8 2 -8 10 0 8 4 12 9 9 4
-3 8 2 8 11 0 9 -4 14 -8 11 -5 -3 -9 1 -9 9 0 8 4 12 9 9 4 -3 8 2 8 11 0 9
-4 14 -8 11 -5 -3 -9 1 -9 9 0 8 4 12 9 9 4 -3 8 2 8 11 0 9 -4 14 -8 11 -8
-4 -9 38 -2 54 1 3 1 13 0 24 -1 13 2 16 12 10 10 -6 11 -5 1 8 -7 8 -10 18
-6 21 3 4 2 7 -4 7 -8 0 -10 32 -3 50 1 3 1 13 0 24 -1 13 2 16 12 10 10 -6
11 -5 1 8 -7 8 -10 18 -6 21 3 4 2 7 -4 7 -8 0 -10 32 -3 50 1 3 1 13 0 24 -1
10 3 15 8 12 6 -4 8 2 5 14 -3 11 -9 18 -12 15 -4 -2 -8 2 -8 10 0 8 4 12 9 9
4 -3 8 2 8 11 0 9 -4 14 -8 11 -5 -3 -9 1 -9 9 0 8 4 12 9 9 4 -3 8 2 8 11 0
9 -4 14 -8 11 -5 -3 -9 1 -9 9 0 8 4 12 9 9 4 -3 8 2 8 11 0 9 -4 14 -9 11
-11 -7 -9 13 2 32 5 6 4 12 -1 12 -7 0 -8 33 -2 50 1 3 1 13 0 24 -1 13 2 16
12 10 10 -6 11 -5 1 8 -7 8 -10 18 -6 21 3 4 2 7 -3 7 -8 0 -11 72 -4 90 1 3
1 13 0 24 -1 13 2 16 12 10 10 -6 11 -5 1 8 -7 8 -10 18 -6 21 3 4 1 7 -6 7
-7 0 -9 5 -6 10 4 6 11 8 16 5 5 -3 6 1 3 9 -3 9 -9 14 -13 11 -4 -2 -8 2 -8
10 0 8 4 12 9 9 4 -3 8 2 8 11 0 9 -4 14 -8 11 -5 -3 -9 1 -9 9 0 8 4 12 9 9
4 -3 8 2 8 11 0 9 -4 14 -8 11 -5 -3 -9 1 -9 9 0 8 4 12 9 9 4 -3 8 2 8 11 0
9 -4 14 -8 11 -8 -4 -9 38 -2 54 1 3 1 13 0 24 -1 13 2 16 12 10 10 -6 11 -5
1 8 -7 8 -10 18 -6 21 3 4 2 7 -4 7 -8 0 -10 32 -3 50 1 3 1 13 0 24 -1 13 2
16 12 10 10 -6 11 -5 1 8 -7 8 -10 18 -6 21 3 4 2 7 -4 7 -8 0 -10 32 -3 50 1
3 1 13 0 24 -1 10 3 15 8 12 6 -4 8 2 5 14 -3 11 -9 18 -12 15 -4 -2 -8 2 -8
10 0 8 4 12 9 9 4 -3 8 2 8 11 0 9 -4 14 -8 11 -5 -3 -9 1 -9 9 0 8 4 12 9 9
4 -3 8 2 8 11 0 9 -4 14 -8 11 -5 -3 -9 1 -9 9 0 8 4 12 9 9 4 -3 8 2 8 11 0
9 -4 14 -9 11 -11 -7 -9 13 2 32 5 6 4 12 -1 12 -7 0 -8 33 -2 50 1 3 1 13 0
24 -1 13 2 16 12 10 10 -6 11 -5 1 8 -7 8 -10 18 -6 21 3 4 2 7 -3 7 -8 0 -11
72 -4 90 1 3 1 13 0 24 -1 13 2 16 12 10 10 -6 11 -5 1 8 -7 8 -10 18 -6 21 3
4 1 7 -6 7 -7 0 -9 5 -6 10 4 6 11 8 16 5 5 -3 6 1 3 9 -3 9 -9 14 -13 11 -4
-2 -8 2 -8 10 0 8 4 12 9 9 4 -3 8 2 8 11 0 9 -4 14 -8 11 -5 -3 -9 1 -9 9 0
8 4 12 9 9 4 -3 8 2 8 11 0 9 -4 14 -8 11 -5 -3 -9 1 -9 9 0 8 4 12 9 9 4 -3
8 2 8 11 0 9 -4 14 -8 11 -8 -4 -9 38 -2 54 1 3 1 13 0 24 -1 13 2 16 12 10
10 -6 11 -5 1 8 -7 8 -10 18 -6 21 3 4 2 7 -4 7 -8 0 -10 32 -3 50 1 3 1 13 0
24 -1 13 2 16 12 10 10 -6 11 -5 1 8 -7 8 -10 18 -6 21 3 4 2 7 -4 7 -8 0 -10
32 -3 50 1 3 1 13 0 24 -1 10 3 15 8 12 6 -4 8 2 5 14 -3 11 -9 18 -12 15 -4
-2 -8 2 -8 10 0 8 4 12 9 9 4 -3 8 2 8 11 0 9 -4 14 -8 11 -5 -3 -9 1 -9 9 0
8 4 12 9 9 4 -3 8 2 8 11 0 9 -4 14 -8 11 -5 -3 -9 1 -9 9 0 8 4 12 9 9 4 -3
8 2 8 11 0 9 -4 14 -9 11 -11 -7 -9 13 2 32 5 6 4 12 -1 12 -7 0 -8 33 -2 50
1 3 1 13 0 24 -1 13 2 16 12 10 10 -6 11 -5 1 8 -7 8 -10 18 -6 21 3 4 2 7 -3
7 -8 0 -11 72 -4 90 1 3 1 13 0 24 -1 13 2 16 12 10 10 -6 11 -5 1 8 -7 8 -10
18 -6 21 3 4 2 7 -4 7 -8 0 -10 32 -3 50 1 3 1 13 0 24 -1 13 2 16 12 10 10
-6 11 -5 1 8 -7 8 -10 18 -6 21 3 4 2 7 -4 7 -8 0 -10 32 -3 50 1 3 1 13 0 24
-1 13 2 16 12 10 10 -6 11 -5 1 8 -7 8 -10 18 -6 21 3 4 2 7 -4 7 -8 0 -10 32
-3 50 1 3 1 13 0 24 -1 10 3 15 8 12 12 -7 10 20 -3 31 -4 4 -5 2 0 -6 5 -10
4 -12 -4 -7 -6 4 -8 13 -4 19 4 7 6 20 4 31 -2 13 1 16 11 10 10 -6 11 -5 1 8
-7 8 -10 18 -6 21 3 4 2 7 -4 7 -8 0 -10 32 -3 50 1 3 1 13 0 24 -1 13 2 16
12 10 10 -6 11 -5 1 8 -7 8 -10 18 -6 21 3 4 2 7 -4 7 -8 0 -10 32 -3 50 1 3
1 13 0 24 -1 10 3 15 8 12 12 -7 10 20 -3 31 -4 4 -5 2 0 -6 5 -10 4 -12 -4
-7 -6 4 -8 13 -4 19 4 7 6 20 4 31 -2 13 1 16 11 10 10 -6 11 -5 1 8 -7 8 -10
18 -6 21 3 4 2 7 -4 7 -8 0 -10 32 -3 50 1 3 1 13 0 24 -1 13 2 16 12 10 10
-6 11 -5 1 8 -7 8 -10 18 -6 21 3 4 2 7 -4 7 -8 0 -10 32 -3 50 1 3 1 13 0 24
-1 10 3 15 8 12 12 -7 10 20 -3 31 -4 4 -5 2 0 -6 5 -10 4 -12 -4 -7 -6 4 -8
13 -4 19 4 7 6 20 4 31 -2 13 1 16 11 10 10 -6 11 -5 1 8 -7 8 -10 18 -6 21 3
4 2 7 -4 7 -8 0 -10 32 -3 50 1 3 1 13 0 24 -1 13 2 16 12 10 10 -6 11 -5 1 8
-7 8 -10 18 -6 21 3 4 2 7 -4 7 -8 0 -10 32 -3 50 1 3 1 13 0 24 -1 10 3 15 8
12 12 -7 10 20 -3 31 -4 4 -5 2 0 -6 5 -10 4 -12 -4 -7 -6 4 -8 13 -4 19 4 7
6 20 4 31 -2 13 1 16 11 10 10 -6 11 -5 1 8 -7 8 -10 18 -6 21 3 4 2 7 -4 7
-8 0 -10 32 -3 50 1 3 1 13 0 24 -1 13 2 16 12 10 10 -6 11 -5 1 8 -7 8 -10
18 -6 21 3 4 2 7 -4 7 -8 0 -10 32 -3 50 1 3 1 13 0 24 -1 10 3 15 8 12 12 -7
10 20 -3 31 -4 4 -5 2 0 -6 5 -10 4 -12 -4 -7 -6 4 -8 13 -4 19 4 7 6 20 4 31
-2 13 1 16 11 10 10 -6 11 -5 1 8 -7 8 -10 18 -6 21 3 4 2 7 -4 7 -8 0 -10 32
-3 50 1 3 1 13 0 24 -1 13 2 16 12 10 10 -6 11 -5 1 8 -7 8 -10 18 -6 21 3 4
2 7 -4 7 -8 0 -10 32 -3 50 1 3 1 13 0 24 -1 10 3 15 8 12 12 -7 10 20 -3 31
-4 4 -5 2 0 -6 5 -10 4 -12 -4 -7 -6 4 -8 13 -4 19 4 7 6 20 4 31 -2 13 1 16
11 10 10 -6 11 -5 1 8 -7 8 -10 18 -6 21 3 4 2 7 -4 7 -8 0 -10 32 -3 50 1 3
1 13 0 24 -1 13 2 16 12 10 10 -6 11 -5 1 8 -7 8 -10 18 -6 21 3 4 2 7 -4 7
-8 0 -10 32 -3 50 1 3 1 13 0 24 -1 10 3 15 8 12 12 -7 10 20 -3 31 -4 4 -5 2
0 -6 5 -10 4 -12 -4 -7 -6 4 -8 13 -4 19 4 7 6 20 4 31 -2 13 1 16 11 10 10
-6 11 -5 1 8 -7 8 -10 18 -6 21 3 4 2 7 -4 7 -8 0 -10 32 -3 50 1 3 1 13 0 24
-1 13 2 16 12 10 10 -6 11 -5 1 8 -7 8 -10 18 -6 21 3 4 2 7 -4 7 -8 0 -10 32
-3 50 1 3 1 13 0 24 -1 10 2 16 7 13 5 -3 9 3 9 13 0 10 -5 16 -11 13 -7 -2
-12 3 -12 11 0 8 4 13 9 10 4 -3 8 2 8 11 0 10 -5 13 -12 9 -7 -5 -8 -3 -2 7
5 8 7 22 5 33 -2 13 1 16 11 10 10 -6 11 -5 1 8 -7 8 -10 18 -6 21 3 4 2 7 -3
7 -8 0 -11 72 -4 90 1 3 1 13 0 24 -1 13 2 16 12 10 10 -6 11 -5 1 8 -7 8 -10
18 -6 21 3 4 1 7 -6 7 -7 0 -9 5 -6 10 4 6 11 8 16 5 5 -3 6 1 3 9 -3 9 -9 14
-13 11 -4 -2 -8 2 -8 10 0 8 4 12 9 9 4 -3 8 2 8 11 0 9 -4 14 -8 11 -5 -3 -9
1 -9 9 0 8 4 12 9 9 4 -3 8 2 8 11 0 9 -4 14 -8 11 -5 -3 -9 1 -9 9 0 8 4 12
9 9 4 -3 8 2 8 11 0 9 -4 14 -8 11 -8 -4 -9 38 -2 54 1 3 1 13 0 24 -1 13 2
16 12 10 10 -6 11 -5 1 8 -7 8 -10 18 -6 21 3 4 2 7 -4 7 -8 0 -10 32 -3 50 1
3 1 13 0 24 -1 13 2 16 12 10 10 -6 11 -5 1 8 -7 8 -10 18 -6 21 3 4 2 7 -4 7
-8 0 -10 32 -3 50 1 3 1 13 0 24 -1 10 3 15 8 12 6 -4 8 2 5 14 -3 11 -9 18
-12 15 -4 -2 -8 2 -8 10 0 8 4 12 9 9 4 -3 8 2 8 11 0 9 -4 14 -8 11 -5 -3 -9
1 -9 9 0 8 4 12 9 9 4 -3 8 2 8 11 0 9 -4 14 -8 11 -5 -3 -9 1 -9 9 0 8 4 12
9 9 4 -3 8 2 8 11 0 9 -4 14 -9 11 -11 -7 -9 13 2 32 5 6 4 12 -1 12 -7 0 -8
33 -2 50 1 3 1 13 0 24 -1 13 2 16 12 10 10 -6 11 -5 1 8 -7 8 -10 18 -6 21 3
4 2 7 -3 7 -8 0 -11 72 -4 90 1 3 1 13 0 24 -1 13 2 16 12 10 10 -6 11 -5 1 8
-7 8 -10 18 -6 21 3 4 1 7 -6 7 -7 0 -9 5 -6 10 4 6 11 8 16 5 5 -3 6 1 3 9
-3 9 -9 14 -13 11 -4 -2 -8 2 -8 10 0 8 4 12 9 9 4 -3 8 2 8 11 0 9 -4 14 -8
11 -5 -3 -9 1 -9 9 0 8 4 12 9 9 4 -3 8 2 8 11 0 9 -4 14 -8 11 -5 -3 -9 1 -9
9 0 8 4 12 9 9 4 -3 8 2 8 11 0 9 -4 14 -8 11 -8 -4 -9 38 -2 54 1 3 1 13 0
24 -1 13 2 16 12 10 10 -6 11 -5 1 8 -7 8 -10 18 -6 21 3 4 2 7 -4 7 -8 0 -10
32 -3 50 1 3 1 13 0 24 -1 13 2 16 12 10 10 -6 11 -5 1 8 -7 8 -10 18 -6 21 3
4 2 7 -4 7 -8 0 -10 32 -3 50 1 3 1 13 0 24 -1 10 3 15 8 12 6 -4 8 2 5 14 -3
11 -9 18 -12 15 -4 -2 -8 2 -8 10 0 8 4 12 9 9 4 -3 8 2 8 11 0 9 -4 14 -8 11
-5 -3 -9 1 -9 9 0 8 4 12 9 9 4 -3 8 2 8 11 0 9 -4 14 -8 11 -5 -3 -9 1 -9 9
0 8 4 12 9 9 4 -3 8 2 8 11 0 9 -4 14 -9 11 -11 -7 -9 13 2 32 5 6 4 12 -1 12
-7 0 -8 33 -2 50 1 3 1 13 0 24 -1 13 2 16 12 10 10 -6 11 -5 1 8 -7 8 -10 18
-6 21 3 4 2 7 -3 7 -8 0 -11 72 -4 90 1 3 1 13 0 24 -1 13 2 16 12 10 10 -6
11 -5 1 8 -7 8 -10 18 -6 21 3 4 1 7 -6 7 -7 0 -9 5 -6 10 4 6 11 8 16 5 5 -3
6 1 3 9 -3 9 -9 14 -13 11 -4 -2 -8 2 -8 10 0 8 4 12 9 9 4 -3 8 2 8 11 0 9
-4 14 -8 11 -5 -3 -9 1 -9 9 0 8 4 12 9 9 4 -3 8 2 8 11 0 9 -4 14 -8 11 -5
-3 -9 1 -9 9 0 8 4 12 9 9 4 -3 8 2 8 11 0 9 -4 14 -8 11 -8 -4 -9 38 -2 54 1
3 1 13 0 24 -1 13 2 16 12 10 10 -6 11 -5 1 8 -7 8 -10 18 -6 21 3 4 2 7 -4 7
-8 0 -10 32 -3 50 1 3 1 13 0 24 -1 13 2 16 12 10 10 -6 11 -5 1 8 -7 8 -10
18 -6 21 3 4 2 7 -4 7 -8 0 -10 32 -3 50 1 3 1 13 0 24 -1 10 3 15 8 12 6 -4
8 2 5 14 -3 11 -9 18 -12 15 -4 -2 -8 2 -8 10 0 8 4 12 9 9 4 -3 8 2 8 11 0 9
-4 14 -8 11 -5 -3 -9 1 -9 9 0 8 4 12 9 9 4 -3 8 2 8 11 0 9 -4 14 -8 11 -5
-3 -9 1 -9 9 0 8 4 12 9 9 4 -3 8 2 8 11 0 9 -4 14 -8 11 -5 -3 -9 1 -9 9 0 8
4 12 8 10 4 -3 10 2 13 10 3 9 -1 18 -9 22 -13 4 -12 9 6 24 23 20 34 24 25
11 -3 -5 1 -9 9 -9 8 0 12 4 9 9 -3 4 0 8 5 8 6 0 11 -5 11 -11 0 -8 5 -8 15
1 12 10 15 10 15 0 0 -10 3 -10 15 0 12 10 15 10 15 -1 0 -8 6 -5 14 7 14 18
15 18 21 1 6 -15 10 -15 23 -5 9 7 13 8 9 2 -3 -6 0 -11 8 -11 8 0 12 4 9 9
-3 4 0 8 5 8 6 0 11 -5 11 -12 0 -9 3 -9 11 -1 9 9 18 8 38 -4 22 -13 23 -13
8 0 -17 14 -16 15 7 13 15 0 26 -5 26 -10 0 -5 6 -3 14 3 10 9 16 9 21 1 5 -8
11 -8 21 1 10 8 14 8 14 0 0 -6 5 -11 11 -11 5 0 7 5 3 12 -4 7 -3 8 4 4 19
-12 53 -16 47 -5 -4 5 -1 9 4 9 6 0 11 -5 11 -12 0 -9 3 -9 11 -1 9 9 18 8 38
-4 22 -13 23 -13 8 0 -17 14 -16 15 7 13 15 0 26 -5 26 -10 0 -5 6 -3 14 3 10
9 16 9 21 1 5 -8 11 -8 21 1 10 8 14 8 14 0 0 -6 5 -11 11 -11 5 0 7 5 3 12
-4 7 -3 8 4 4 19 -12 53 -16 47 -5 -4 5 -1 9 4 9 6 0 11 -5 11 -11 0 -8 6 -7
17 2 13 11 17 11 20 2 3 -7 9 -13 14 -13 6 0 8 4 5 8 -2 4 4 8 15 8 10 0 19
-4 19 -8 0 -5 10 -4 21 3 12 6 19 7 16 2 -4 -5 0 -10 8 -10 8 0 12 4 9 9 -3 4
0 8 5 8 6 0 11 -5 11 -12 0 -9 3 -9 11 -1 9 9 18 8 38 -4 22 -13 23 -13 8 0
-17 14 -16 15 7 13 15 0 26 -5 26 -10 0 -5 6 -3 14 3 10 9 16 9 21 1 5 -8 11
-8 21 1 10 8 14 8 14 0 0 -6 5 -11 11 -11 5 0 7 5 3 12 -4 7 -3 8 4 4 19 -12
53 -16 47 -5 -4 5 -1 9 4 9 6 0 11 -5 11 -12 0 -9 3 -9 11 -1 9 9 18 8 38 -4
22 -13 23 -13 8 0 -17 14 -16 15 7 13 15 0 26 -5 26 -10 0 -5 6 -3 14 3 10 9
16 9 21 1 5 -8 11 -8 21 1 10 8 14 8 14 0 0 -6 5 -11 11 -11 5 0 7 5 3 12 -4
7 -3 8 4 4 19 -12 53 -16 47 -5 -4 5 -1 9 4 9 6 0 11 -5 11 -11 0 -8 6 -7 17
2 13 11 17 11 20 2 3 -7 9 -13 14 -13 6 0 8 4 5 8 -2 4 4 8 15 8 10 0 19 -4
19 -8 0 -5 10 -4 21 3 12 6 19 7 16 2 -4 -5 0 -10 8 -10 8 0 12 4 9 9 -3 4 0
8 5 8 6 0 11 -5 11 -12 0 -9 3 -9 11 -1 9 9 18 8 38 -4 22 -13 23 -13 8 0 -17
14 -16 15 7 13 15 0 26 -5 26 -10 0 -5 6 -3 14 3 10 9 16 9 21 1 5 -8 11 -8
21 1 10 8 14 8 14 0 0 -6 5 -11 11 -11 5 0 7 5 3 12 -4 7 -3 8 4 4 19 -12 53
-16 47 -5 -4 5 -1 9 4 9 6 0 11 -5 11 -12 0 -9 3 -9 11 -1 9 9 18 8 38 -4 22
-13 23 -13 8 0 -17 14 -16 15 7 13 15 0 26 -5 26 -10 0 -5 6 -3 14 3 10 9 16
9 21 1 5 -8 11 -8 21 1 10 8 14 8 14 0 0 -6 5 -11 11 -11 5 0 7 5 3 12 -4 7
-3 8 4 4 19 -12 53 -16 47 -5 -4 5 -1 9 4 9 6 0 11 -5 11 -11 0 -8 6 -7 17 2
13 11 17 11 20 2 3 -7 9 -13 14 -13 6 0 8 4 5 8 -2 4 4 8 15 8 10 0 19 -4 19
-8 0 -5 10 -4 21 3 12 6 19 7 16 2 -4 -5 0 -10 8 -10 8 0 12 4 9 9 -3 4 0 8 5
8 6 0 11 -5 11 -12 0 -9 3 -9 11 -1 9 9 18 8 38 -4 22 -13 23 -13 8 0 -17 14
-16 15 7 13 15 0 26 -5 26 -10 0 -5 6 -3 14 3 10 9 16 9 21 1 5 -8 11 -8 21 1
10 8 14 8 14 0 0 -6 5 -11 11 -11 5 0 7 5 3 12 -4 7 -3 8 4 4 19 -12 53 -16
47 -5 -4 5 -1 9 4 9 6 0 11 -5 11 -12 0 -9 3 -9 11 -1 9 9 18 8 38 -4 22 -13
23 -13 8 0 -17 14 -16 15 7 13 15 0 26 -5 26 -10 0 -5 6 -3 14 3 10 9 16 9 21
1 5 -8 11 -8 21 1 10 8 14 8 14 0 0 -6 5 -11 11 -11 5 0 7 5 3 12 -4 7 -3 8 4
4 19 -12 53 -16 47 -5 -4 5 -1 9 4 9 6 0 11 -5 11 -11 0 -8 6 -7 17 2 13 11
17 11 20 2 3 -7 9 -13 14 -13 6 0 8 4 5 8 -2 4 4 8 15 8 10 0 19 -4 19 -9 0
-5 6 -4 14 2 10 9 16 9 21 1 5 -8 11 -8 21 1 10 8 14 8 14 0 0 -6 5 -11 11
-11 5 0 7 5 3 12 -4 7 -3 8 4 4 19 -12 53 -16 47 -5 -4 5 -1 9 4 9 6 0 11 -5
11 -12 0 -9 3 -9 12 0 14 14 32 16 24 4 -6 -10 56 -8 72 2 7 4 12 2 12 -3 0
-6 5 -11 11 -11 5 0 8 4 5 8 -9 15 35 6 46 -9 8 -11 9 -11 4 4 -6 18 9 24 19
7 5 -8 11 -7 21 1 10 8 14 8 14 0 0 -6 5 -11 11 -11 5 0 7 5 3 12 -4 7 -3 8 4
4 19 -12 53 -16 47 -5 -4 5 -1 9 4 9 6 0 11 -5 11 -11 0 -8 5 -8 15 1 8 7 15
8 15 3 0 -5 9 -9 19 -9 15 0 17 3 9 13 -8 10 -7 12 6 7 9 -3 16 -11 16 -18 0
-6 5 -4 10 4 7 11 10 11 10 2 0 -8 5 -10 12 -6 18 11 68 12 68 1 0 -6 5 -6 13
0 20 15 73 9 69 -8 -2 -8 7 -4 22 10 22 21 26 22 32 7 3 -9 10 -16 16 -16 5 0
7 3 4 8 -2 4 17 7 42 6 35 -1 46 -5 44 -15 -2 -8 7 -4 22 10 22 21 26 22 32 7
3 -9 10 -16 16 -16 5 0 6 5 2 12 -4 7 -3 8 4 4 19 -12 53 -16 47 -5 -4 5 -1 9
4 9 6 0 11 -5 11 -12 0 -9 3 -9 11 -1 9 9 18 8 38 -4 22 -13 23 -13 8 0 -17
14 -16 15 7 13 15 0 26 -5 26 -10 0 -5 6 -3 14 3 10 9 16 9 21 1 5 -8 11 -8
21 1 10 8 14 8 14 0 0 -6 5 -11 11 -11 5 0 7 5 3 12 -4 7 -3 8 4 4 19 -12 53
-16 47 -5 -4 5 -1 9 4 9 6 0 11 -5 11 -12 0 -9 3 -9 12 0 16 16 31 15 22 0 -5
-9 -2 -9 9 1 13 10 17 10 17 1 0 -9 4 -9 17 1 10 8 14 9 10 2 -6 -9 0 -9 23
-3 17 5 30 5 30 0 0 -5 6 -7 14 -4 8 3 17 0 22 -7 4 -8 3 -10 -4 -5 -7 4 -12
1 -12 -9 0 -9 -4 -14 -9 -10 -5 3 -13 -4 -16 -16 -4 -11 -9 -18 -12 -16 -7 8
-53 -34 -53 -48 0 -6 -11 -18 -25 -25 -13 -7 -27 -22 -31 -32 -3 -10 -8 -17
-12 -15 -9 5 -92 -79 -86 -86 3 -3 -4 -8 -15 -12 -12 -3 -21 -11 -21 -16 0 -6
-4 -7 -10 -4 -6 4 -7 -1 -3 -11 4 -12 3 -15 -5 -10 -7 4 -12 2 -12 -4 0 -6
-10 -21 -21 -33 -12 -12 -18 -16 -14 -8 5 9 4 12 -3 7 -7 -4 -12 -14 -12 -22
0 -8 -4 -13 -9 -10 -5 3 -11 -4 -14 -15 -3 -12 -10 -18 -16 -14 -7 3 -11 -2
-11 -14 0 -15 -4 -19 -17 -14 -11 4 -14 3 -9 -5 4 -7 2 -12 -4 -12 -6 0 -8 -4
-5 -10 6 -9 -8 -14 -28 -11 -5 1 -6 -3 -3 -8 3 -5 -16 -31 -42 -59 -103 -110
-132 -143 -132 -153 0 -6 -5 -7 -12 -3 -8 5 -9 2 -5 -10 4 -9 3 -15 -1 -13 -4
3 -13 -1 -20 -9 -7 -8 -10 -14 -7 -14 4 0 0 -7 -9 -15 -8 -8 -19 -15 -25 -15
-5 0 -13 -5 -17 -12 -5 -7 -3 -8 5 -3 10 5 9 2 0 -13 -7 -12 -16 -19 -21 -16
-4 3 -10 -7 -14 -21 -3 -14 -9 -24 -12 -21 -5 6 -44 -40 -42 -50 1 -4 -5 -11
-14 -16 -9 -5 -14 -13 -11 -19 4 -5 1 -9 -5 -9 -13 0 -46 -30 -33 -30 4 0 0
-5 -10 -11 -9 -6 -15 -14 -12 -20 4 -5 -1 -9 -9 -9 -9 0 -15 -6 -13 -12 1 -7
-5 -12 -13 -10 -8 2 -12 0 -8 -3 11 -11 -11 -47 -24 -39 -7 4 -8 2 -4 -5 5 -7
-1 -20 -13 -30 -12 -10 -21 -23 -21 -30 0 -6 -4 -11 -10 -11 -5 0 -10 -7 -10
-16 0 -10 -6 -14 -14 -11 -10 4 -12 0 -9 -14 4 -13 0 -19 -11 -19 -9 0 -15 -3
-15 -7 3 -20 -2 -34 -10 -29 -11 7 -23 -22 -14 -36 4 -7 1 -8 -6 -4 -8 5 -14
0 -18 -13 -3 -12 -9 -21 -13 -21 -4 0 -15 -15 -25 -34 -11 -19 -24 -32 -29
-29 -6 4 -8 3 -4 -2 4 -4 -2 -21 -13 -36 -11 -16 -17 -29 -13 -29 4 0 -3 -8
-14 -19 -12 -10 -19 -21 -15 -25 3 -3 1 -6 -5 -6 -7 0 -12 -7 -12 -15 0 -8 -4
-15 -9 -15 -10 0 -27 -39 -23 -53 1 -5 -2 -6 -7 -3 -5 4 -22 -19 -36 -49 -15
-30 -31 -52 -36 -49 -5 3 -8 2 -7 -3 4 -14 -13 -53 -23 -53 -6 0 -7 -4 -4 -10
3 -5 1 -10 -5 -10 -6 0 -9 -4 -6 -9 3 -5 -1 -12 -10 -15 -8 -3 -13 -10 -9 -16
3 -5 -3 -18 -15 -30 -11 -11 -21 -23 -21 -27 -6 -29 -23 -62 -35 -67 -7 -3
-11 -12 -8 -21 4 -8 1 -15 -7 -15 -7 0 -9 -3 -6 -7 4 -3 -1 -12 -11 -20 -9 -8
-11 -11 -4 -8 11 6 12 3 3 -14 -7 -11 -16 -21 -21 -21 -5 0 -7 -9 -5 -20 2
-11 1 -19 -3 -16 -4 2 -13 -2 -20 -10 -10 -11 -10 -14 0 -14 8 -1 7 -5 -4 -14
-10 -7 -18 -25 -18 -40 0 -16 -5 -26 -15 -26 -9 0 -12 -6 -9 -15 4 -8 1 -15
-6 -15 -10 0 -10 -3 0 -15 11 -13 10 -14 -4 -9 -12 4 -16 0 -16 -15 0 -12 -5
-21 -11 -21 -5 0 -7 -4 -4 -10 3 -5 2 -10 -4 -10 -6 0 -8 -7 -5 -15 4 -8 -1
-17 -10 -21 -13 -5 -14 -9 -5 -20 9 -11 8 -15 -5 -20 -9 -3 -13 -10 -10 -15 3
-5 1 -9 -5 -9 -5 0 -8 -9 -6 -21 3 -15 0 -19 -10 -15 -9 3 -12 -1 -10 -15 2
-10 -2 -19 -8 -19 -7 0 -6 -4 3 -10 12 -8 12 -10 -5 -10 -17 0 -17 -2 -5 -10
10 -6 11 -10 3 -10 -7 0 -13 -9 -13 -20 0 -10 -8 -24 -17 -29 -13 -7 -14 -10
-4 -11 11 0 10 -5 -4 -20 -10 -11 -18 -35 -19 -53 -1 -21 -5 -33 -12 -30 -8 3
-11 -7 -9 -26 1 -17 -1 -29 -5 -26 -10 6 -22 -24 -15 -35 3 -5 1 -11 -5 -15
-15 -9 -12 -27 3 -20 6 4 4 0 -7 -9 -11 -9 -16 -22 -12 -31 3 -10 2 -14 -5
-10 -6 4 -9 -1 -7 -11 2 -12 -2 -18 -11 -16 -12 3 -12 0 -1 -12 9 -12 10 -16
0 -16 -7 0 -10 -7 -6 -15 3 -8 0 -15 -7 -15 -8 0 -6 -4 3 -10 12 -8 12 -10 -5
-11 -11 0 -14 -3 -8 -6 9 -3 8 -11 -5 -31 -9 -14 -12 -23 -5 -19 13 8 12 -18
-2 -30 -4 -4 -5 -2 0 6 5 9 4 12 -2 8 -6 -4 -9 -17 -8 -29 1 -13 -4 -32 -11
-44 -7 -12 -11 -33 -10 -48 2 -14 -1 -29 -6 -32 -4 -3 -5 -10 -2 -16 5 -8 1
-9 -11 -4 -14 5 -16 4 -6 -8 7 -9 8 -22 3 -37 -5 -13 -8 -32 -7 -41 2 -10 -3
-18 -11 -18 -9 0 -12 -5 -9 -10 4 -6 12 -7 18 -3 7 4 5 -1 -3 -11 -8 -10 -15
-30 -16 -45 -1 -14 -2 -36 -3 -49 0 -13 -5 -21 -9 -18 -5 3 -9 -1 -9 -9 0 -8
5 -11 11 -8 6 3 6 1 -1 -7 -6 -7 -9 -19 -6 -28 4 -9 2 -13 -3 -9 -6 3 -9 -7
-8 -26 1 -17 -2 -40 -8 -50 -8 -15 -7 -18 4 -12 10 6 11 5 1 -6 -16 -16 -17
-33 -2 -23 6 3 3 -5 -6 -20 -10 -14 -13 -26 -8 -26 5 0 10 -7 10 -15 0 -8 -5
-12 -10 -8 -5 3 -6 -3 -2 -16 3 -11 2 -21 -3 -21 -11 0 -9 -51 3 -70 6 -10 4
-12 -10 -6 -15 5 -16 4 -5 -9 10 -12 10 -15 0 -15 -10 0 -10 -3 0 -15 7 -8 8
-15 3 -15 -13 0 -11 -43 2 -52 6 -5 6 -8 -1 -8 -7 0 -9 -11 -6 -26 3 -16 1
-25 -5 -21 -5 3 -10 0 -10 -8 0 -8 4 -12 9 -9 9 6 5 -32 -5 -42 -4 -4 -2 -13
4 -20 6 -8 7 -14 0 -18 -6 -4 -8 -13 -4 -21 3 -9 -1 -22 -8 -31 -7 -8 -8 -14
-3 -13 21 4 26 -2 14 -16 -7 -8 -8 -15 -3 -15 11 0 11 -36 0 -46 -4 -4 -2 -13
4 -21 9 -10 8 -18 -6 -33 -16 -18 -16 -20 -1 -26 9 -3 16 -10 16 -16 0 -5 -3
-7 -8 -4 -4 2 -7 -20 -7 -49 0 -29 3 -52 6 -49 4 2 9 -5 12 -16 3 -11 0 -23
-5 -27 -7 -4 -8 -1 -3 7 6 9 4 11 -4 6 -9 -6 -8 -13 6 -29 10 -11 12 -17 5
-13 -9 6 -11 0 -7 -25 3 -18 8 -36 11 -41 3 -4 -1 -8 -8 -8 -9 0 -9 -3 2 -10
12 -8 12 -10 1 -10 -11 0 -11 -3 0 -17 12 -14 12 -16 -1 -9 -9 4 -8 1 3 -7 17
-14 24 -33 9 -23 -4 2 -8 -6 -8 -19 0 -13 4 -21 8 -19 4 3 8 0 8 -5 0 -6 -6
-11 -12 -11 -9 0 -9 -3 1 -9 8 -5 12 -19 9 -35 -3 -14 -2 -23 2 -21 4 3 6 -13
5 -35 -1 -22 2 -40 6 -40 5 0 9 -5 9 -11 0 -5 -4 -8 -9 -5 -5 4 -8 -2 -7 -11
2 -9 8 -19 14 -21 7 -2 12 -8 12 -13 0 -6 -4 -7 -10 -4 -7 4 -7 -3 0 -19 5
-14 7 -26 4 -26 -4 0 0 -8 7 -17 12 -15 12 -16 -1 -8 -13 8 -13 6 -1 -8 7 -9
11 -24 7 -32 -3 -8 -2 -15 3 -15 4 0 7 -18 7 -39 -1 -22 2 -37 5 -35 4 2 9 -3
13 -11 3 -10 -1 -15 -12 -16 -14 0 -15 -2 -2 -7 9 -4 15 -14 15 -22 -1 -8 3
-21 8 -27 5 -7 6 -13 2 -13 -4 0 -1 -8 6 -17 9 -11 10 -14 2 -9 -9 5 -11 2 -7
-8 3 -9 11 -16 16 -16 7 0 6 -5 -1 -14 -9 -11 -8 -15 6 -21 17 -6 17 -7 0 -20
-16 -11 -16 -13 -2 -19 9 -3 13 -10 10 -16 -3 -5 -1 -10 6 -10 8 0 7 -5 -2
-17 -10 -11 -10 -14 -1 -9 8 5 12 0 12 -14 0 -13 4 -19 11 -14 8 4 8 0 0 -15
-9 -16 -9 -21 0 -21 6 0 9 -7 5 -15 -3 -8 0 -15 7 -15 8 0 8 -3 -2 -9 -11 -7
-11 -9 0 -13 8 -3 14 -11 15 -19 3 -47 5 -50 17 -43 9 6 9 4 -1 -8 -9 -11 -10
-18 -2 -23 5 -3 10 -15 10 -26 0 -10 6 -19 13 -19 9 0 8 -3 -2 -9 -9 -6 -10
-10 -2 -12 6 -2 12 -18 14 -36 1 -17 6 -29 11 -25 5 3 7 -5 4 -16 -4 -12 -2
-20 2 -17 5 3 11 1 15 -5 3 -5 1 -10 -5 -10 -7 0 -5 -7 4 -16 15 -15 20 -29
17 -48 -1 -4 4 -15 11 -24 11 -13 11 -15 -2 -8 -8 4 -6 0 4 -8 12 -9 14 -16 7
-16 -8 0 -7 -5 4 -16 9 -9 14 -23 11 -30 -3 -8 -1 -14 5 -14 6 0 9 -7 5 -15
-3 -9 0 -15 8 -15 9 0 13 -10 11 -30 -1 -17 2 -28 9 -27 6 1 11 -8 11 -21 0
-13 7 -27 14 -31 7 -5 11 -13 7 -19 -3 -6 -1 -14 5 -17 5 -4 8 -14 5 -22 -3
-8 -1 -11 4 -8 6 3 10 -3 10 -14 0 -12 5 -21 10 -21 6 0 10 -9 10 -20 0 -11 5
-20 11 -20 5 0 7 -5 3 -12 -4 -6 1 -17 11 -25 14 -9 15 -13 4 -13 -11 0 -11
-2 -1 -9 7 -4 15 -17 16 -27 2 -10 8 -18 14 -17 5 1 8 -7 5 -18 -3 -12 -2 -24
3 -28 17 -12 49 -54 35 -46 -15 9 -14 4 11 -47 7 -16 20 -28 28 -28 13 0 13
-1 0 -10 -10 -6 -11 -10 -3 -10 7 0 15 -11 19 -25 3 -14 9 -25 13 -25 4 0 7
-10 8 -21 1 -12 12 -33 25 -47 13 -14 16 -22 8 -18 -9 5 -8 2 2 -7 10 -8 15
-17 11 -20 -3 -4 -1 -7 5 -7 7 0 11 -6 10 -12 -2 -7 3 -12 11 -10 12 3 12 1 0
-14 -9 -12 -9 -15 -1 -10 7 4 12 1 12 -8 0 -9 5 -16 11 -16 5 0 8 -4 4 -9 -3
-5 0 -15 7 -23 7 -7 14 -20 16 -28 2 -7 12 -21 23 -31 15 -12 16 -18 7 -22
-10 -4 -10 -6 0 -6 6 -1 12 -7 12 -15 0 -8 8 -17 17 -20 15 -6 15 -8 3 -16
-13 -8 -13 -10 1 -10 18 0 34 -26 30 -49 -1 -7 2 -10 8 -7 5 4 12 2 16 -4 3
-5 0 -10 -7 -10 -8 0 -6 -5 5 -11 9 -6 15 -14 12 -19 -3 -4 2 -11 11 -14 8 -3
12 -10 9 -16 -3 -5 -1 -10 4 -10 6 0 11 -7 11 -16 0 -8 5 -12 10 -9 6 3 10 -1
10 -10 0 -9 7 -23 15 -32 8 -8 13 -19 10 -24 -4 -5 -1 -9 5 -9 6 0 8 -5 4 -12
-4 -7 -3 -8 5 -4 6 4 14 0 18 -11 4 -10 14 -24 22 -31 9 -8 10 -11 4 -7 -17 8
-16 -3 1 -20 7 -8 17 -11 21 -7 5 4 5 1 1 -6 -5 -8 1 -20 14 -32 11 -10 22
-27 23 -38 0 -12 6 -20 12 -19 5 1 9 -6 9 -15 -1 -10 2 -15 7 -12 5 3 9 -2 9
-10 0 -9 7 -16 17 -16 9 0 13 -3 10 -6 -9 -10 12 -46 24 -39 5 4 9 -1 9 -9 0
-26 2 -31 21 -44 11 -7 19 -20 19 -28 0 -8 5 -14 12 -14 6 0 9 -3 6 -6 -3 -3
4 -16 16 -29 32 -35 41 -48 49 -68 4 -10 11 -15 17 -12 6 4 7 -1 3 -11 -4 -12
-3 -15 5 -10 8 5 12 0 12 -14 0 -12 4 -18 10 -15 5 3 10 0 10 -7 0 -7 12 -23
28 -36 15 -13 21 -21 15 -17 -9 4 -11 1 -7 -9 3 -9 10 -13 15 -10 5 3 9 -4 9
-16 0 -12 5 -18 10 -15 6 3 15 -6 20 -20 5 -14 14 -23 20 -20 5 3 10 -1 10
-10 0 -20 25 -47 35 -37 4 4 4 -3 1 -15 -6 -19 -4 -22 10 -16 14 5 16 3 11
-11 -4 -10 -3 -15 3 -11 6 3 10 -1 10 -9 0 -9 6 -16 14 -16 7 0 20 -8 27 -17
13 -17 13 -17 -6 -3 -19 15 -19 15 0 -12 11 -15 26 -28 33 -28 6 0 11 -3 10
-7 -2 -14 14 -43 22 -38 4 2 12 -7 19 -21 6 -15 16 -22 23 -18 6 4 8 3 4 -4
-3 -6 5 -22 19 -36 14 -14 37 -42 51 -63 14 -21 29 -37 32 -35 4 2 12 -5 17
-15 6 -10 18 -24 28 -31 9 -7 17 -20 17 -28 0 -8 5 -12 10 -9 6 3 10 1 10 -5
0 -6 11 -21 25 -34 13 -13 22 -26 18 -29 -3 -4 1 -7 10 -7 8 0 19 -9 22 -20 4
-11 11 -18 16 -15 5 4 9 1 9 -5 0 -7 13 -24 28 -38 16 -15 41 -45 56 -67 16
-22 26 -31 22 -20 -6 19 -6 19 9 1 8 -10 12 -23 9 -27 -3 -5 0 -9 5 -9 11 0
51 -36 51 -46 0 -11 28 -33 34 -27 3 4 6 1 6 -6 0 -14 25 -42 32 -36 2 2 4 -4
4 -15 0 -13 -4 -16 -12 -10 -6 6 -14 7 -17 3 -4 -3 -13 0 -22 7 -13 11 -15 10
-9 -6 5 -18 5 -18 -10 0 -16 20 -16 20 -17 0 0 -10 -3 -13 -6 -7 -3 9 -10 10
-22 4 -10 -6 -23 -6 -31 -1 -8 5 -18 6 -22 4 -5 -3 -23 -7 -41 -10 -25 -3 -29
-1 -17 7 12 8 9 9 -12 5 -16 -4 -28 -1 -31 7 -3 7 -6 4 -6 -7 -1 -15 -4 -16
-16 -6 -8 7 -22 9 -32 6 -9 -4 -20 -1 -25 6 -5 9 -8 8 -8 -6 0 -15 -3 -16 -15
-6 -8 7 -22 9 -32 6 -9 -4 -20 -1 -25 6 -5 9 -8 8 -8 -6 0 -15 -3 -16 -15 -6
-8 7 -22 9 -32 6 -9 -4 -20 -1 -25 6 -5 9 -8 8 -8 -6 0 -15 -3 -16 -15 -6 -8
7 -22 9 -32 6 -9 -4 -20 -1 -25 6 -5 9 -8 8 -8 -6 0 -15 -3 -16 -15 -6 -8 7
-22 9 -32 6 -9 -4 -20 -1 -25 6 -5 9 -8 8 -8 -6 0 -15 -3 -16 -15 -6 -8 7 -22
9 -32 6 -9 -4 -20 -1 -25 6 -5 9 -8 8 -8 -6 0 -15 -3 -16 -15 -6 -8 7 -22 9
-32 6 -9 -4 -20 -1 -25 6 -5 9 -8 7 -8 -6 0 -15 -3 -17 -11 -9 -6 6 -18 9 -27
6 -11 -5 -13 -2 -8 8 4 8 1 6 -7 -4 -11 -14 -16 -15 -20 -5 -4 10 -6 10 -6 -1
-1 -11 -4 -11 -18 0 -13 11 -15 11 -9 1 6 -11 1 -12 -24 -9 -22 4 -30 2 -27
-7 3 -7 -4 -13 -16 -13 -11 -1 -23 -7 -27 -13 -4 -7 -10 -11 -14 -11 -15 1
-35 -12 -30 -20 3 -5 0 -9 -6 -9 -15 0 -60 -46 -53 -54 4 -3 1 -6 -5 -6 -7 0
-12 -9 -12 -20 0 -11 -3 -20 -7 -20 -5 0 -17 -12 -27 -27 -11 -14 -14 -23 -8
-19 6 3 13 2 17 -4 3 -5 1 -10 -5 -10 -7 0 -9 -12 -6 -30 2 -17 0 -28 -5 -24
-5 3 -6 11 -3 17 4 7 3 9 -1 4 -5 -4 -9 -17 -10 -28 -1 -14 3 -18 13 -14 11 4
12 2 4 -8 -9 -10 -8 -17 1 -27 10 -10 8 -12 -7 -6 -16 5 -17 4 -7 -8 7 -8 9
-21 5 -27 -5 -8 -3 -9 6 -4 10 6 12 4 7 -8 -4 -10 -2 -17 4 -17 6 0 8 -7 5
-16 -3 -8 -2 -13 3 -10 5 3 12 -1 15 -10 3 -8 2 -12 -4 -9 -15 9 -12 -4 4 -20
7 -8 17 -11 21 -7 5 4 5 2 2 -4 -3 -6 2 -20 13 -31 10 -12 16 -24 12 -29 -4
-4 -1 -4 6 0 7 4 15 1 18 -8 3 -9 12 -16 20 -16 8 0 14 -4 14 -10 0 -5 9 -10
20 -10 12 0 20 -7 20 -17 0 -15 2 -16 10 -3 7 11 10 11 10 2 0 -7 4 -10 10 -7
6 3 10 2 10 -2 0 -5 10 -10 23 -11 12 -1 36 -3 52 -5 17 -1 39 2 50 7 18 8 19
7 6 -7 -8 -10 -9 -17 -3 -17 6 0 14 5 18 11 4 8 9 7 15 -2 7 -11 9 -9 9 6 0
14 3 16 8 7 5 -7 18 -14 31 -17 12 -2 19 0 16 6 -4 5 -11 6 -17 3 -7 -4 -8 -2
-4 4 5 9 13 9 27 2 10 -6 19 -8 19 -4 0 3 8 0 17 -7 11 -10 14 -10 9 -2 -9 17
6 17 23 1 9 -8 11 -8 8 -2 -8 14 20 27 28 14 4 -6 15 -6 28 2 20 10 21 10 8
-5 -15 -19 -1 -23 17 -5 9 9 12 9 12 -2 0 -9 5 -8 16 6 8 10 13 13 9 7 -3 -7
-3 -13 2 -14 4 0 16 -2 26 -4 9 -2 15 1 11 6 -3 5 -10 6 -16 3 -7 -4 -8 -2 -4
4 5 9 13 9 27 2 10 -6 19 -8 19 -4 0 3 8 0 17 -7 11 -10 14 -10 9 -1 -9 16 6
16 23 0 9 -8 11 -8 8 -2 -8 14 20 27 28 14 4 -6 15 -6 28 2 20 10 21 10 8 -5
-15 -19 -1 -23 17 -5 9 9 12 9 12 -2 0 -9 5 -8 16 6 8 10 13 13 9 7 -3 -7 -3
-13 2 -14 4 0 16 -2 26 -4 9 -2 15 1 11 6 -3 5 -10 6 -16 3 -7 -4 -8 -2 -4 4
5 9 13 9 27 2 10 -6 19 -8 19 -4 0 3 8 0 17 -7 9 -8 14 -9 10 -3 -4 7 2 12 18
12 16 0 22 -5 18 -12 -4 -7 -1 -6 8 1 12 10 18 10 29 0 8 -7 10 -7 7 -1 -4 7
3 12 18 11 16 0 22 -4 18 -11 -4 -7 -1 -6 8 1 12 10 18 10 29 0 8 -7 10 -7 7
-1 -4 7 3 12 18 12 16 0 22 -5 18 -12 -4 -7 -1 -6 8 1 12 10 18 10 29 0 8 -7
10 -7 7 -1 -4 7 3 12 18 12 16 0 22 -5 18 -12 -4 -7 -1 -6 8 1 12 10 18 10 29
0 8 -7 10 -7 7 -1 -4 7 3 12 18 11 16 0 22 -4 18 -11 -4 -7 -1 -6 8 1 12 10
18 10 29 0 8 -7 10 -7 7 -1 -4 7 3 12 18 12 16 0 22 -5 18 -12 -4 -7 -1 -6 8
1 12 10 18 10 29 0 8 -7 10 -7 7 -1 -4 7 3 12 18 12 16 0 22 -5 18 -12 -4 -7
-1 -6 8 1 12 10 18 10 29 0 8 -7 10 -7 7 -1 -4 7 3 12 18 12 16 0 22 -5 18
-12 -4 -7 -1 -6 8 1 12 10 18 10 29 0 8 -7 10 -7 7 -1 -4 7 3 12 18 11 16 0
22 -4 18 -11 -4 -7 -1 -6 8 1 12 10 18 10 29 0 8 -7 10 -7 7 -1 -4 7 3 12 18
12 16 0 22 -5 18 -12 -4 -7 -1 -6 8 1 12 10 18 10 29 0 8 -7 10 -7 7 -1 -4 7
3 12 18 12 16 0 22 -5 18 -12 -4 -7 -1 -6 8 1 12 10 18 10 29 0 8 -7 10 -7 7
-1 -4 7 3 12 18 12 14 0 22 -5 18 -11 -4 -6 -1 -7 8 -1 21 13 39 14 39 1 0 -6
6 -3 13 8 11 14 16 15 22 5 6 -9 4 -11 -5 -5 -9 5 -11 4 -6 -4 5 -8 13 -7 28
4 16 11 25 12 35 3 10 -8 13 -7 13 3 0 11 2 11 10 -1 5 -8 10 -10 10 -4 0 6 7
11 15 12 8 1 22 3 30 4 8 1 17 8 20 16 4 12 8 12 23 1 9 -7 13 -9 9 -4 -4 5 9
19 30 32 21 13 34 23 30 23 -5 0 7 14 25 31 18 18 27 28 19 24 -9 -5 -12 -4
-7 3 4 7 15 12 24 12 15 0 15 2 2 10 -14 9 -7 15 14 11 5 -1 3 6 -5 15 -8 10
-9 15 -3 11 8 -4 17 10 27 38 11 34 11 43 1 35 -10 -9 -11 -7 -7 9 3 12 13 21
22 21 13 1 13 2 -3 11 -15 9 -16 13 -5 20 10 6 11 9 2 9 -7 0 -13 5 -13 11 0
5 6 7 13 3 8 -6 8 -3 -1 9 -8 9 -11 21 -7 27 3 5 0 10 -7 10 -9 0 -9 3 2 10
13 9 8 14 -12 11 -3 0 -5 11 -3 25 1 16 -4 28 -16 35 -12 6 -16 15 -12 26 4
10 2 14 -4 10 -5 -3 -20 7 -32 24 -12 16 -26 27 -31 24 -6 -3 -7 1 -4 9 3 8
-2 17 -14 20 -10 4 -25 18 -32 31 -7 14 -22 25 -32 25 -10 0 -17 4 -16 8 2 4
-9 20 -25 36 -15 15 -25 32 -21 38 4 6 -1 6 -14 -1 -18 -10 -20 -9 -17 9 2 11
1 19 -3 16 -8 -5 -37 14 -43 29 -2 6 -8 9 -13 7 -5 -2 -6 4 -2 13 3 9 2 14 -3
10 -5 -3 -18 6 -29 20 -11 14 -25 25 -30 25 -6 0 -19 13 -28 29 -10 17 -21 28
-26 25 -4 -3 -8 0 -8 6 0 6 -7 18 -15 26 -8 9 -15 13 -15 9 0 -3 -6 0 -14 7
-7 7 -11 19 -9 26 4 8 0 10 -11 6 -11 -4 -16 -1 -16 10 0 9 -8 16 -17 16 -9 0
-14 3 -10 6 3 3 -25 37 -64 75 -38 37 -69 73 -69 79 0 6 -4 8 -10 5 -9 -5 -14
7 -11 27 0 4 -8 5 -19 3 -12 -2 -18 0 -14 6 3 5 -15 29 -40 53 -25 23 -46 48
-46 54 0 7 -7 12 -16 12 -8 0 -13 4 -10 9 3 5 -1 12 -10 15 -8 3 -12 11 -8 17
4 8 3 9 -5 5 -7 -5 -17 5 -26 26 -8 18 -15 26 -15 18 -1 -10 -5 -7 -12 8 -6
12 -18 22 -27 22 -14 0 -14 2 -1 10 13 9 13 10 0 11 -8 1 -18 1 -22 0 -5 0 -8
6 -8 15 0 9 -14 29 -30 44 -17 15 -30 32 -30 37 0 4 -11 17 -25 27 -13 10 -22
22 -20 27 3 4 -4 11 -16 14 -17 6 -19 9 -8 16 11 7 10 9 -4 9 -10 0 -22 11
-27 25 -5 14 -17 25 -25 25 -9 0 -13 4 -10 10 3 6 1 10 -5 10 -6 0 -8 5 -5 10
3 6 -1 10 -9 10 -9 0 -15 6 -14 13 2 6 -2 11 -9 10 -6 -1 -14 4 -17 13 -4 10
-2 13 7 8 6 -3 -1 5 -17 18 -20 17 -27 29 -21 39 5 8 5 11 1 7 -4 -3 -20 7
-34 24 -15 16 -35 39 -44 49 -10 10 -18 24 -18 29 0 6 -4 10 -10 10 -5 0 -10
7 -10 15 0 8 -4 15 -10 15 -5 0 -10 7 -10 15 0 8 -7 15 -17 15 -9 0 -14 3 -10
6 3 4 -1 13 -9 21 -8 8 -12 19 -8 24 3 5 0 8 -7 7 -7 -2 -18 7 -24 20 -5 12
-13 22 -17 22 -5 0 -8 6 -8 14 0 8 -7 17 -16 20 -8 3 -12 10 -9 16 3 5 1 10
-4 10 -6 0 -11 7 -11 16 0 8 -4 13 -9 10 -11 -7 -23 22 -16 35 4 5 -2 6 -11 2
-12 -4 -15 -3 -10 5 4 7 2 12 -3 12 -6 0 -11 7 -11 15 0 7 -8 19 -17 24 -10 6
-14 11 -10 11 9 0 -6 20 -40 55 -13 12 -23 30 -23 39 0 9 -5 16 -11 16 -5 0
-8 4 -5 8 3 5 -4 15 -15 22 -10 8 -19 22 -19 32 0 10 -4 18 -8 18 -5 0 -15 12
-23 28 -7 15 -26 43 -41 63 -15 20 -28 44 -28 54 0 10 -5 13 -12 9 -7 -5 -9
-2 -6 8 4 8 -2 20 -13 27 -11 6 -17 16 -14 21 3 6 1 10 -4 10 -6 0 -10 6 -9
13 2 6 -3 11 -11 9 -9 -2 -11 3 -7 13 3 9 -1 18 -9 21 -8 4 -13 10 -10 14 3 5
-2 15 -10 23 -8 9 -15 23 -15 31 0 9 -6 16 -14 16 -10 0 -12 7 -8 22 3 13 1
19 -5 15 -11 -7 -26 19 -19 32 3 3 -5 18 -16 31 -11 14 -16 19 -12 11 5 -9 3
-12 -5 -7 -6 4 -9 11 -6 16 9 14 -6 40 -24 40 -14 0 -14 2 -1 10 10 6 11 10 3
10 -7 0 -13 9 -13 21 0 13 -4 18 -12 13 -8 -5 -9 -2 -5 9 3 10 2 17 -4 17 -6
0 -7 4 -4 10 3 5 1 10 -5 10 -6 0 -8 4 -5 10 3 6 1 10 -5 10 -6 0 -8 4 -5 10
3 6 1 10 -4 10 -6 0 -11 7 -11 15 0 8 -6 15 -12 15 -10 0 -10 2 0 9 11 6 10
10 -3 15 -10 4 -15 12 -11 22 3 8 2 12 -4 9 -6 -3 -10 3 -10 14 0 12 -4 21
-10 21 -5 0 -10 9 -10 20 0 11 -4 20 -10 20 -5 0 -10 9 -10 20 0 11 -6 20 -12
20 -9 0 -8 4 2 10 13 8 13 10 -2 10 -10 0 -15 7 -14 18 2 9 -4 23 -13 30 -9 8
-10 10 -2 6 10 -5 8 3 -5 27 -10 19 -22 36 -26 37 -5 2 -8 11 -8 21 0 9 -6 23
-12 30 -7 8 -8 11 -2 8 6 -3 11 0 11 8 0 8 -4 12 -8 9 -4 -2 -13 5 -19 17 -8
15 -9 19 -1 15 6 -4 11 -2 11 3 0 6 -6 11 -14 11 -9 0 -12 7 -9 20 4 13 0 20
-9 20 -10 0 -13 10 -12 30 1 16 -2 27 -7 24 -5 -3 -9 1 -10 8 -1 29 -8 51 -17
57 -5 3 -8 16 -7 29 1 12 -2 22 -7 22 -5 0 -7 4 -3 9 3 5 0 13 -6 16 -5 4 -8
13 -5 21 3 9 -1 14 -12 14 -15 0 -15 2 -2 10 14 9 7 15 -14 11 -5 -1 -4 4 2
11 6 8 7 19 2 28 -5 8 -6 18 -4 22 3 4 0 8 -7 8 -7 0 -9 3 -6 7 4 3 2 12 -4
20 -9 10 -8 13 0 13 7 0 9 5 6 10 -4 6 -11 8 -16 5 -5 -3 -6 1 -3 9 4 9 1 16
-6 16 -10 0 -10 3 0 15 10 12 10 15 0 15 -7 0 -10 6 -7 14 3 7 -2 24 -10 37
-13 17 -13 20 -2 14 12 -8 12 -6 1 8 -8 9 -11 20 -8 25 3 6 -1 15 -9 22 -8 7
-15 18 -15 24 0 6 5 4 10 -4 8 -12 9 -11 7 7 -2 11 -9 28 -16 37 -7 9 -10 16
-7 16 4 0 1 10 -5 23 -10 19 -10 21 2 12 10 -7 10 -5 -1 5 -8 8 -14 23 -12 32
2 9 -1 25 -7 35 -6 12 -6 25 0 35 6 11 5 19 -2 24 -8 5 -9 3 -4 -6 5 -8 4 -11
-2 -7 -5 3 -8 20 -7 36 1 17 -3 31 -8 31 -7 0 -6 5 1 14 9 11 9 15 -1 19 -10
4 -10 8 2 16 10 7 11 11 3 11 -7 0 -13 12 -13 26 0 16 -4 23 -11 18 -8 -5 -9
-2 -1 12 6 11 7 27 1 41 -6 16 -5 23 4 23 8 0 9 3 1 8 -6 4 -11 24 -11 45 0
23 -6 42 -14 48 -9 5 -10 9 -2 9 8 0 9 9 3 30 -5 19 -5 28 1 25 5 -4 5 4 -1
19 -6 17 -6 27 1 32 7 4 7 10 0 18 -6 7 -9 25 -7 41 1 17 -1 38 -6 48 -6 12
-5 17 4 17 8 1 5 7 -6 15 -14 11 -16 15 -5 15 9 0 14 11 14 30 0 17 -3 30 -7
30 -5 0 -8 5 -8 11 0 5 6 7 13 3 6 -4 3 3 -7 15 -20 22 -20 22 0 15 16 -6 17
-5 7 7 -15 19 -13 31 6 47 14 11 14 11 -1 6 -10 -3 -18 -1 -18 5 0 6 5 11 12
11 9 0 9 3 0 12 -13 13 -17 32 -4 25 4 -3 7 37 7 89 -1 52 2 94 5 94 9 0 6 32
-3 47 -4 6 -3 14 2 18 6 3 7 13 4 22 -4 10 -2 14 4 10 6 -4 8 3 5 18 -2 14 2
33 9 42 12 14 12 15 0 9 -10 -7 -11 -3 -6 15 5 13 8 36 7 52 0 18 3 25 11 20
7 -4 6 0 -2 10 -9 12 -10 17 -2 17 7 0 9 5 6 10 -3 6 0 10 7 10 8 0 9 3 3 8
-9 6 -11 22 -5 47 1 6 2 13 1 18 0 4 4 7 9 7 6 0 10 5 10 11 0 5 -4 8 -8 5 -5
-3 -9 1 -9 9 0 8 4 12 8 10 4 -3 9 2 12 9 3 8 1 17 -6 20 -8 3 -9 7 -1 13 14
11 27 46 14 38 -6 -3 -10 1 -10 10 0 9 4 14 9 11 14 -9 21 20 8 34 -9 9 -9 11
-1 7 15 -8 27 20 13 29 -6 3 -3 12 8 21 10 8 11 11 3 7 -12 -7 -13 -5 -3 8 7
8 10 18 6 21 -3 4 -1 7 6 7 8 0 9 5 1 19 -7 14 -7 22 2 27 7 5 8 3 3 -6 -5 -8
-4 -11 3 -6 6 3 9 15 7 26 -2 11 2 20 8 20 7 0 6 4 -3 10 -11 7 -11 10 -2 10
7 0 12 8 10 18 -2 9 2 16 8 15 7 -1 10 10 8 28 -2 16 0 28 5 25 4 -3 7 8 6 23
-1 20 2 28 11 24 10 -4 11 2 4 26 -8 30 -8 30 13 19 19 -9 20 -9 11 3 -12 14
-4 52 14 63 5 3 8 17 7 31 -2 14 1 25 6 25 6 0 8 4 4 9 -3 5 1 16 9 24 8 8 12
17 9 21 -3 3 -1 12 5 19 7 8 9 17 5 20 -3 4 -1 7 6 7 7 0 9 5 6 10 -3 6 0 10
7 10 9 0 9 3 -2 10 -12 7 -12 10 -1 10 7 0 11 6 8 13 -5 15 18 39 28 29 4 -4
2 4 -5 17 -6 13 -7 21 -2 17 12 -7 24 8 27 33 4 31 17 61 26 61 5 0 9 7 9 15
0 8 9 30 20 50 11 19 16 35 12 35 -4 0 2 7 12 15 11 8 14 15 8 15 -8 0 -5 8 7
21 11 12 18 30 16 40 -2 10 -1 18 3 16 4 -1 7 1 7 5 0 4 9 14 20 23 11 9 13
13 5 9 -10 -5 -9 0 4 14 11 12 15 22 11 22 -4 0 0 9 10 20 10 11 14 20 9 20
-5 0 0 7 10 15 11 8 16 15 11 15 -5 0 0 7 11 16 10 8 13 13 7 9 -9 -4 -11 -1
-7 9 3 9 10 16 15 16 5 0 9 7 9 16 0 9 5 12 12 8 8 -5 9 -2 5 9 -3 10 -2 17 4
17 6 0 7 5 4 10 -3 6 -1 10 4 10 6 0 11 7 11 16 0 11 5 14 18 9 13 -5 14 -3 5
6 -9 9 -8 15 3 26 8 8 11 20 7 26 -4 6 -1 8 8 5 10 -4 15 1 16 15 1 11 8 24
15 28 7 5 14 13 14 19 1 5 2 15 3 21 0 5 5 8 10 5 8 -5 12 3 20 39 1 6 9 14
17 18 8 4 14 15 14 23 0 9 5 12 12 8 7 -5 9 -2 5 9 -3 9 0 18 9 21 8 3 14 13
14 21 0 9 5 13 10 10 6 -3 10 -1 10 4 0 20 3 26 19 39 12 10 12 12 1 6 -8 -4
0 7 18 25 17 18 29 37 26 43 -4 6 -3 9 2 6 5 -3 18 4 28 15 19 20 19 20 0 13
-13 -5 -9 2 11 21 17 15 33 32 35 38 3 5 9 9 13 7 5 -1 6 2 3 7 -3 5 1 14 9
21 8 7 13 16 10 20 -3 5 4 11 14 15 13 4 18 11 14 22 -4 10 -2 14 4 10 5 -4
25 16 42 43 18 28 37 50 42 50 5 0 9 6 9 14 0 8 13 25 29 39 17 14 28 27 25
30 -3 3 4 11 16 17 12 6 19 14 17 17 -3 3 9 20 28 38 18 19 31 36 28 38 -2 3
5 8 16 12 12 3 19 11 16 16 -4 5 -1 9 5 9 6 0 8 5 5 10 -3 6 1 10 9 10 9 0 16
5 16 12 0 6 19 29 42 51 24 22 36 36 28 32 -8 -4 -6 1 5 12 11 11 22 19 25 18
6 -3 36 28 32 33 -2 2 15 19 37 39 23 19 41 42 41 50 0 8 5 11 12 7 8 -5 9 -2
5 10 -5 13 -3 17 7 13 9 -4 17 2 21 14 4 12 13 18 20 15 9 -3 12 2 10 15 -2
11 0 17 4 15 10 -7 41 30 33 39 -4 4 -2 5 5 3 6 -2 29 16 51 40 22 23 45 42
51 42 6 0 11 5 11 10 0 17 100 111 111 105 5 -4 9 -3 8 2 -3 17 1 36 7 30 7
-6 50 35 47 45 -2 4 6 10 17 13 11 4 20 11 20 16 0 5 7 9 16 9 8 0 13 4 10 8
-3 5 8 16 25 26 16 10 26 22 23 28 -5 8 -1 9 10 5 11 -4 15 -3 11 4 -4 6 1 13
12 15 10 3 23 15 28 27 6 12 14 20 18 17 5 -3 13 3 18 13 6 9 15 14 21 11 7
-4 8 -2 4 4 -3 6 3 16 14 22 11 6 17 16 14 22 -4 7 -3 8 5 4 6 -4 28 9 53 33
23 23 45 41 50 41 5 0 6 5 3 10 -3 6 3 10 15 10 12 0 18 5 15 10 -3 6 1 10 9
10 8 0 27 16 42 35 14 19 30 32 35 29 5 -3 9 0 9 6 0 6 5 8 12 4 6 -4 8 -3 5
3 -4 6 10 23 29 39 20 16 42 34 49 41 7 7 16 9 19 5 4 -3 9 4 13 16 3 12 9 20
13 17 4 -2 12 7 18 20 7 14 16 25 22 25 6 0 8 5 5 10 -3 6 -1 10 6 10 7 0 9 3
6 6 -4 4 2 19 13 34 15 21 17 30 7 40 -9 9 -9 11 0 6 8 -4 11 15 10 74 -1 48
-6 81 -13 84 -7 2 -9 16 -7 30 3 15 1 26 -6 26 -6 0 -11 6 -11 14 0 7 -7 19
-15 26 -8 7 -12 17 -8 24 3 6 3 8 -2 4 -4 -4 -20 6 -35 22 -16 17 -33 30 -39
30 -5 0 -15 8 -20 18 -6 9 -11 14 -11 9 0 -4 -13 -1 -29 8 -17 8 -38 12 -47 8
-12 -5 -15 -3 -9 6 5 10 2 11 -14 6 -15 -4 -20 -2 -18 7 2 7 2 10 0 5 -3 -4
-10 -4 -15 -1 -6 4 -8 3 -5 -3 7 -11 -62 -11 -81 1 -6 4 -12 3 -12 -2 0 -9
-47 -8 -57 1 -2 3 -18 1 -34 -3 -20 -6 -29 -5 -29 3 0 7 -4 6 -10 -3 -9 -13
-10 -13 -10 0 0 9 -3 11 -8 5 -4 -5 -17 -10 -29 -11 -18 0 -20 2 -11 13 8 11
7 12 -6 7 -9 -3 -16 -9 -16 -13 0 -12 -72 -4 -81 10 -7 11 -9 11 -9 -3 0 -10
-3 -18 -6 -18 -4 0 -13 8 -20 18 -10 12 -13 13 -9 2 8 -22 -134 -22 -153 0
-10 13 -11 12 -5 -4 4 -12 2 -17 -4 -13 -16 10 -64 16 -58 7 3 -4 -3 -7 -12
-5 -10 2 -22 4 -26 4 -5 1 -5 7 -1 14 6 9 5 9 -8 0 -8 -7 -19 -9 -24 -5 -4 4
-2 -2 6 -12 14 -18 14 -18 -5 -9 -11 6 -46 10 -78 9 -43 -1 -61 3 -68 14 -7
13 -8 13 -9 0 0 -21 -53 -20 -62 0 -5 11 -7 10 -7 -5 -1 -17 -3 -17 -11 -5 -5
8 -10 11 -10 5 0 -5 -11 -10 -24 -10 -19 0 -22 3 -14 13 8 9 7 11 -6 6 -9 -3
-16 -11 -16 -16 0 -6 -6 -5 -15 2 -8 7 -15 8 -15 3 0 -10 -47 -9 -57 0 -2 3
-18 1 -34 -3 -20 -6 -29 -5 -29 3 0 7 -4 6 -10 -3 -9 -13 -10 -13 -10 0 0 9
-3 11 -8 5 -4 -5 -17 -10 -29 -11 -18 0 -20 2 -11 13 8 11 7 12 -6 7 -9 -3
-16 -9 -16 -13 0 -12 -72 -4 -81 10 -7 11 -9 11 -9 -3 0 -10 -3 -18 -6 -18 -4
0 -13 8 -20 18 -10 12 -13 13 -9 2 8 -22 -134 -22 -153 0 -10 13 -11 12 -5 -4
4 -12 2 -17 -4 -13 -16 10 -64 16 -58 7 3 -4 -3 -7 -12 -5 -10 2 -22 4 -26 4
-5 1 -5 7 -1 14 6 9 5 9 -8 0 -8 -7 -19 -9 -24 -5 -4 4 -2 -2 6 -12 14 -18 14
-18 -5 -9 -11 6 -46 10 -78 9 -43 -1 -61 3 -68 14 -7 13 -8 13 -9 0 0 -21 -53
-20 -62 0 -5 11 -7 10 -7 -5 -1 -17 -3 -17 -11 -5 -5 8 -10 11 -10 5 0 -5 -11
-10 -24 -10 -19 0 -22 3 -14 13 8 9 7 11 -6 6 -9 -3 -16 -11 -16 -16 0 -6 -6
-5 -15 2 -8 7 -15 8 -15 3 0 -10 -47 -9 -57 0 -2 3 -18 1 -34 -3 -20 -6 -29
-5 -29 3 0 7 -4 6 -10 -3 -9 -13 -10 -13 -10 0 0 9 -3 11 -8 5 -4 -5 -17 -10
-29 -11 -18 0 -20 2 -11 13 8 11 7 12 -6 7 -9 -3 -16 -9 -16 -13 0 -12 -72 -4
-81 10 -7 11 -9 11 -9 -3 0 -10 -3 -18 -6 -18 -4 0 -13 8 -20 18 -10 12 -13
13 -9 2 8 -22 -134 -22 -153 0 -10 13 -11 12 -5 -4 4 -12 2 -17 -4 -13 -16 10
-64 16 -58 7 3 -4 -3 -7 -12 -5 -10 2 -22 4 -26 4 -5 1 -5 7 -1 14 6 9 5 9 -8
0 -8 -7 -19 -9 -24 -5 -4 4 -2 -2 6 -12 14 -18 14 -18 -5 -9 -11 6 -46 10 -78
9 -43 -1 -61 3 -68 14 -7 13 -8 13 -9 0 0 -21 -53 -20 -62 0 -5 11 -7 10 -7
-5 -1 -17 -3 -17 -11 -5 -5 8 -10 11 -10 5 0 -5 -11 -10 -24 -10 -19 0 -22 3
-14 13 8 9 7 11 -6 6 -9 -3 -16 -11 -16 -16 0 -6 -6 -5 -15 2 -8 7 -15 8 -15
3 0 -10 -47 -9 -57 0 -2 3 -18 1 -34 -3 -20 -6 -29 -5 -29 3 0 7 -4 6 -10 -3
-9 -13 -10 -13 -10 0 0 9 -3 11 -8 5 -4 -5 -17 -10 -29 -11 -18 0 -20 2 -11
13 8 11 7 12 -6 7 -9 -3 -16 -9 -16 -13 0 -12 -72 -4 -81 10 -7 11 -9 11 -9
-3 0 -10 -3 -18 -6 -18 -4 0 -13 8 -20 18 -10 12 -13 13 -9 2 8 -22 -134 -22
-153 0 -10 13 -11 12 -5 -4 4 -12 2 -17 -4 -13 -16 10 -64 16 -58 7 3 -4 -3
-7 -12 -5 -10 2 -22 4 -26 4 -5 1 -5 7 -1 14 6 9 5 9 -8 0 -8 -7 -19 -9 -24
-5 -4 4 -2 -1 5 -10 19 -26 6 -22 -19 5 -12 12 -19 15 -15 7 8 -22 -134 -22
-153 0 -10 13 -11 12 -5 -4 4 -12 2 -17 -4 -13 -16 10 -64 16 -58 7 3 -4 -3
-7 -12 -5 -10 2 -22 4 -26 4 -5 1 -5 7 -1 14 6 9 5 9 -8 0 -8 -7 -19 -9 -24
-5 -4 4 -2 -2 6 -12 14 -18 14 -18 -5 -9 -11 6 -46 10 -78 9 -43 -1 -61 3 -68
14 -7 13 -8 13 -9 0 0 -21 -53 -20 -62 0 -5 11 -7 10 -7 -5 -1 -17 -3 -17 -11
-5 -5 8 -10 11 -10 5 0 -5 -11 -10 -24 -10 -19 0 -22 3 -14 13 8 9 7 11 -6 6
-9 -3 -16 -11 -16 -16 0 -6 -6 -5 -15 2 -8 7 -15 8 -15 3 0 -10 -47 -9 -57 0
-2 3 -18 1 -34 -3 -20 -6 -29 -5 -29 3 0 7 -4 6 -10 -3 -9 -13 -10 -13 -10 0
0 9 -3 11 -8 5 -4 -5 -17 -10 -29 -11 -18 0 -20 2 -11 13 8 11 7 12 -6 7 -9
-3 -16 -9 -16 -13 0 -12 -72 -4 -81 10 -7 11 -9 11 -9 -3 0 -10 -3 -18 -6 -18
-4 0 -13 8 -20 18 -10 12 -13 13 -9 2 8 -22 -134 -22 -153 0 -10 13 -11 12 -5
-4 4 -12 2 -17 -4 -13 -16 10 -64 16 -58 7 3 -4 -3 -7 -12 -5 -10 2 -22 4 -26
4 -5 1 -5 7 -1 14 6 9 5 9 -8 0 -8 -7 -19 -9 -24 -5 -4 4 -2 -1 5 -10 19 -26
6 -22 -19 5 -12 12 -19 15 -15 7 8 -22 -134 -22 -153 0 -10 13 -11 12 -5 -4 4
-12 2 -17 -4 -13 -16 10 -64 16 -58 7 3 -4 -3 -7 -12 -5 -10 2 -22 4 -26 4 -5
1 -5 7 -1 14 6 9 5 9 -8 0 -8 -7 -19 -9 -24 -5 -4 4 -2 -2 6 -12 14 -18 14
-18 -5 -9 -11 6 -46 10 -78 9 -43 -1 -61 3 -68 14 -7 13 -8 13 -9 0 0 -10 -10
-15 -30 -15 -20 0 -30 5 -31 15 0 10 -3 8 -9 -5 -6 -13 -9 -15 -9 -5 -1 12 -3
12 -10 2 -6 -11 -11 -10 -25 3 -15 15 -16 15 -16 -2 0 -15 -2 -16 -10 -3 -8
12 -10 12 -10 1 0 -11 -3 -11 -15 -1 -8 7 -15 8 -15 3 0 -10 -47 -9 -57 0 -2
3 -18 1 -34 -3 -20 -6 -29 -5 -29 3 0 7 -4 6 -10 -3 -9 -13 -10 -13 -10 0 0 9
-3 11 -8 5 -4 -5 -17 -10 -29 -11 -18 0 -20 2 -11 13 8 11 7 12 -6 7 -9 -3
-16 -9 -16 -13 0 -12 -72 -4 -81 10 -7 11 -9 11 -9 -3 0 -10 -3 -18 -6 -18 -4
0 -13 8 -20 18 -10 12 -13 13 -9 2 8 -22 -134 -22 -153 0 -10 13 -11 12 -5 -4
4 -12 2 -17 -4 -13 -16 10 -64 16 -58 7 3 -4 -3 -7 -12 -5 -10 2 -22 4 -26 4
-5 1 -5 7 -1 14 6 9 5 9 -8 0 -8 -7 -19 -9 -24 -5 -4 4 -2 -1 5 -10 19 -26 6
-22 -19 5 -12 12 -19 15 -15 7 8 -22 -134 -22 -153 0 -10 13 -11 12 -5 -4 4
-12 2 -17 -4 -13 -16 10 -64 16 -58 7 3 -4 -3 -7 -12 -5 -10 2 -22 4 -26 4 -5
1 -5 7 -1 14 6 9 5 9 -8 0 -8 -7 -19 -9 -24 -5 -4 4 -2 -2 6 -12 14 -18 14
-18 -5 -9 -11 6 -46 10 -78 9 -43 -1 -61 3 -68 14 -7 13 -8 13 -9 0 0 -21 -53
-20 -62 0 -5 11 -7 10 -7 -5 -1 -17 -3 -17 -11 -5 -5 8 -10 11 -10 5 0 -5 -11
-10 -24 -10 -19 0 -22 3 -14 13 8 9 7 11 -6 6 -9 -3 -16 -11 -16 -16 0 -6 -6
-5 -15 2 -8 7 -15 8 -15 3 0 -10 -47 -9 -57 0 -2 3 -18 1 -34 -3 -20 -6 -29
-5 -29 3 0 7 -4 6 -10 -3 -9 -13 -10 -13 -10 0 0 9 -3 11 -8 5 -4 -5 -17 -10
-29 -11 -18 0 -20 2 -11 13 8 11 7 12 -6 7 -9 -3 -16 -10 -16 -15 0 -4 -7 -6
-15 -3 -8 4 -12 10 -9 15 3 5 3 9 0 9 -3 0 -10 -9 -16 -20z"/>
<path d="M1176 14152 c-3 -5 1 -9 9 -9 8 0 12 4 9 9 -3 4 -7 8 -9 8 -2 0 -6
-4 -9 -8z"/>
<path d="M1496 14152 c-3 -5 1 -9 9 -9 8 0 12 4 9 9 -3 4 -7 8 -9 8 -2 0 -6
-4 -9 -8z"/>
<path d="M2456 14152 c-3 -5 1 -9 9 -9 8 0 12 4 9 9 -3 4 -7 8 -9 8 -2 0 -6
-4 -9 -8z"/>
<path d="M2776 14152 c-3 -5 1 -9 9 -9 8 0 12 4 9 9 -3 4 -7 8 -9 8 -2 0 -6
-4 -9 -8z"/>
<path d="M3736 14152 c-3 -5 1 -9 9 -9 8 0 12 4 9 9 -3 4 -7 8 -9 8 -2 0 -6
-4 -9 -8z"/>
<path d="M4056 14152 c-3 -5 1 -9 9 -9 8 0 12 4 9 9 -3 4 -7 8 -9 8 -2 0 -6
-4 -9 -8z"/>
<path d="M5016 14152 c-3 -5 1 -9 9 -9 8 0 12 4 9 9 -3 4 -7 8 -9 8 -2 0 -6
-4 -9 -8z"/>
<path d="M5976 14152 c-3 -5 1 -9 9 -9 8 0 12 4 9 9 -3 4 -7 8 -9 8 -2 0 -6
-4 -9 -8z"/>
<path d="M6936 14152 c-3 -5 1 -9 9 -9 8 0 12 4 9 9 -3 4 -7 8 -9 8 -2 0 -6
-4 -9 -8z"/>
<path d="M10267 14146 c-11 -11 -17 -12 -26 -3 -7 7 -11 7 -11 0 0 -10 -46
-10 -57 0 -2 3 -18 1 -34 -3 -20 -6 -29 -5 -29 3 0 7 -4 6 -10 -3 -9 -13 -10
-13 -10 0 0 9 -3 11 -8 5 -4 -6 -17 -10 -29 -9 -13 1 -23 -2 -23 -6 0 -5 -11
-7 -25 -6 -13 2 -22 0 -20 -5 3 -4 1 -10 -5 -14 -5 -3 -10 -1 -10 5 0 6 -5 8
-10 5 -6 -4 -8 -11 -5 -16 4 -5 -2 -9 -12 -9 -10 0 -35 -18 -55 -39 -20 -22
-39 -36 -43 -33 -4 4 -6 2 -4 -3 2 -10 -20 -65 -31 -75 -7 -7 -13 -30 -14 -52
0 -10 -4 -18 -8 -18 -5 0 -4 -10 3 -21 8 -15 8 -19 0 -15 -14 9 -14 4 -1 -29
9 -24 8 -26 -7 -21 -15 6 -15 5 2 -14 11 -12 13 -20 6 -20 -8 0 -7 -5 3 -16 9
-8 16 -18 17 -22 3 -29 10 -46 23 -61 9 -10 16 -23 16 -29 0 -6 9 -14 21 -17
11 -4 18 -9 15 -12 -8 -8 45 -53 55 -47 5 3 9 1 9 -5 0 -6 11 -13 25 -17 14
-3 25 -11 25 -17 0 -6 3 -7 6 -4 4 3 15 2 25 -4 14 -7 19 -6 19 3 0 8 5 6 11
-4 5 -10 15 -18 22 -18 7 0 6 4 -3 10 -12 8 -11 10 8 10 12 0 22 -6 22 -12 0
-9 4 -8 10 2 6 10 10 11 10 3 0 -7 5 -13 11 -13 5 0 7 5 3 12 -4 7 -3 8 4 4
19 -12 53 -16 47 -5 -4 5 -1 9 4 9 6 0 11 -5 11 -12 0 -9 3 -9 11 -1 9 9 18 8
38 -4 22 -13 23 -13 8 0 -17 14 -16 15 7 13 15 0 26 -5 26 -10 0 -5 6 -3 14 3
10 9 16 9 21 1 5 -8 11 -8 21 1 10 8 14 8 14 0 0 -6 5 -11 11 -11 5 0 7 5 3
12 -4 7 -3 8 4 4 19 -12 53 -16 47 -5 -4 5 -1 9 4 9 6 0 11 -5 11 -11 0 -8 6
-7 17 2 13 11 17 11 20 2 3 -7 9 -13 14 -13 6 0 8 4 5 8 -2 4 4 8 15 8 10 0
19 -4 19 -8 0 -5 8 -5 18 0 28 13 78 8 74 -9 -2 -8 7 -4 22 10 22 21 26 22 32
7 3 -9 10 -16 16 -16 5 0 7 3 4 8 -2 4 17 7 42 6 35 -1 46 -5 44 -15 -2 -8 7
-4 21 9 23 22 26 23 35 6 8 -15 13 -16 25 -6 11 9 17 10 22 2 5 -8 11 -8 21 1
10 8 14 8 14 0 0 -6 5 -11 11 -11 5 0 7 5 3 12 -4 7 -3 8 4 4 19 -12 53 -16
47 -5 -4 5 -1 9 4 9 6 0 11 -5 11 -12 0 -9 3 -9 12 0 14 14 32 16 24 4 -6 -10
56 -8 72 2 7 4 12 2 12 -3 0 -6 5 -11 11 -11 5 0 8 4 5 8 -9 15 35 6 46 -9 8
-11 9 -11 4 4 -6 18 9 24 19 7 5 -8 11 -7 21 1 10 8 14 8 14 0 0 -6 5 -11 11
-11 5 0 7 5 3 12 -4 7 -3 8 4 4 19 -12 53 -16 47 -5 -4 5 -1 9 4 9 6 0 11 -5
11 -11 0 -8 5 -8 15 1 8 7 15 8 15 3 0 -5 9 -9 19 -9 15 0 17 3 9 13 -8 10 -7
12 6 7 9 -3 16 -11 16 -18 0 -6 5 -4 10 4 7 11 10 11 10 2 0 -8 5 -10 12 -6
18 11 68 12 68 1 0 -6 5 -6 13 0 20 15 73 9 69 -8 -2 -8 7 -4 22 10 22 21 26
22 32 7 3 -9 10 -16 16 -16 5 0 7 3 5 8 -3 4 8 7 24 7 16 1 29 -3 29 -8 0 -5
7 -4 15 3 12 10 15 10 15 -1 0 -11 2 -11 10 1 6 9 10 10 10 3 0 -6 9 -10 20
-8 17 3 18 1 10 -15 -7 -13 -6 -20 3 -23 9 -4 9 -6 -1 -6 -8 -1 -10 -6 -5 -13
4 -7 9 -22 10 -33 3 -16 1 -17 -7 -5 -8 13 -10 12 -10 -2 0 -10 5 -18 12 -18
6 0 3 -7 -8 -15 -18 -13 -18 -14 -1 -15 12 0 16 -4 10 -12 -9 -16 -12 -60 -5
-73 10 -17 11 -35 1 -29 -11 6 -12 -9 -2 -20 4 -3 8 -21 9 -38 2 -23 0 -28 -6
-18 -8 13 -10 12 -10 -2 0 -9 6 -19 13 -21 10 -4 10 -6 0 -6 -7 -1 -13 -6 -13
-12 0 -5 4 -8 8 -5 4 2 8 -6 8 -19 0 -13 -4 -21 -8 -19 -10 6 -11 -10 -1 -20
4 -3 8 -21 9 -38 2 -23 0 -28 -6 -18 -8 13 -10 12 -10 -2 0 -10 5 -18 12 -18
6 0 3 -7 -8 -15 -18 -13 -18 -14 -1 -15 12 0 16 -4 10 -12 -9 -16 -12 -60 -5
-73 10 -17 11 -35 1 -29 -11 6 -12 -9 -2 -20 4 -3 8 -21 9 -38 2 -23 0 -28 -6
-18 -8 13 -10 12 -10 -2 0 -10 5 -18 12 -18 6 0 3 -7 -8 -15 -18 -13 -18 -14
-1 -15 12 0 16 -4 10 -12 -9 -16 -12 -60 -5 -73 10 -17 11 -35 1 -29 -11 6
-12 -9 -2 -20 4 -3 8 -21 9 -38 2 -23 0 -28 -6 -18 -8 13 -10 12 -10 -2 0 -10
6 -18 13 -18 9 0 9 -2 -1 -9 -8 -4 -14 -12 -14 -16 0 -4 6 -12 14 -16 10 -7
10 -9 1 -9 -7 0 -13 -5 -13 -11 0 -5 4 -8 8 -5 4 2 8 -6 8 -19 0 -13 -4 -21
-8 -19 -4 3 -8 1 -8 -5 0 -5 6 -12 13 -14 9 -4 9 -6 -1 -6 -8 -1 -10 -6 -5
-13 12 -20 14 -50 3 -43 -5 3 -10 2 -10 -4 0 -5 6 -12 13 -14 9 -4 8 -6 -2 -6
-10 -1 -11 -5 -3 -13 15 -19 15 -30 0 -39 -11 -7 -10 -9 1 -9 11 0 9 -4 -5
-15 -18 -15 -18 -15 0 -8 15 5 17 3 11 -7 -10 -17 -14 -71 -5 -65 4 2 7 -2 7
-10 0 -8 -4 -12 -9 -9 -10 6 -11 -10 -1 -20 4 -3 8 -21 9 -38 2 -23 0 -28 -6
-18 -8 13 -10 12 -10 -2 0 -10 5 -18 12 -18 6 0 3 -7 -8 -15 -18 -13 -18 -14
-1 -15 12 0 16 -4 10 -12 -9 -16 -12 -60 -5 -73 10 -17 11 -35 1 -29 -11 6
-12 -9 -2 -20 4 -3 8 -21 9 -38 2 -23 0 -28 -6 -18 -8 13 -10 12 -10 -2 0 -10
5 -18 12 -18 6 0 3 -7 -8 -15 -18 -13 -18 -14 -1 -15 12 0 16 -4 10 -12 -9
-16 -12 -60 -5 -73 10 -17 11 -35 1 -29 -11 6 -12 -9 -2 -20 4 -3 8 -21 9 -38
2 -23 0 -28 -6 -18 -8 13 -10 12 -10 -2 0 -10 6 -18 13 -18 9 0 9 -2 -1 -9 -8
-4 -14 -12 -14 -16 0 -4 6 -12 14 -16 10 -7 10 -9 1 -9 -7 0 -13 -5 -13 -11 0
-5 4 -8 8 -5 4 2 8 -6 8 -19 0 -13 -4 -21 -8 -19 -4 3 -8 1 -8 -5 0 -5 6 -12
13 -14 9 -4 9 -6 -1 -6 -8 -1 -10 -6 -5 -13 12 -20 14 -50 3 -43 -5 3 -10 2
-10 -4 0 -5 6 -12 13 -14 9 -4 9 -6 -1 -6 -8 -1 -10 -6 -5 -13 11 -18 10 -32
-2 -40 -6 -5 -4 -8 4 -8 11 0 9 -4 -5 -15 -18 -15 -18 -15 0 -8 15 5 17 3 11
-7 -10 -17 -14 -71 -5 -65 4 2 7 -2 7 -10 0 -8 -4 -12 -9 -9 -10 6 -11 -10 -1
-20 4 -3 8 -21 9 -38 2 -23 0 -28 -6 -18 -8 13 -10 12 -10 -2 0 -10 5 -18 12
-18 6 0 3 -7 -8 -15 -18 -13 -18 -14 -1 -15 12 0 16 -4 10 -12 -9 -16 -12 -60
-5 -73 10 -17 11 -35 1 -29 -11 6 -12 -9 -2 -20 4 -3 8 -21 9 -38 2 -23 0 -28
-6 -18 -8 13 -10 12 -10 -2 0 -10 5 -18 12 -18 6 0 3 -7 -8 -15 -18 -13 -18
-14 -1 -15 12 0 16 -4 10 -12 -9 -16 -12 -60 -5 -73 10 -17 11 -35 1 -29 -11
6 -12 -9 -2 -20 4 -3 8 -21 9 -38 2 -23 0 -28 -6 -18 -8 13 -10 12 -10 -2 0
-9 6 -19 13 -21 10 -4 10 -6 0 -6 -7 -1 -13 -6 -13 -12 0 -5 4 -8 8 -5 4 2 8
-6 8 -19 0 -13 -4 -21 -8 -19 -10 6 -11 -10 -1 -20 4 -3 8 -21 9 -38 2 -23 0
-28 -6 -18 -8 13 -10 12 -10 -2 0 -10 5 -18 12 -18 6 0 3 -7 -8 -15 -18 -13
-18 -14 -1 -15 12 0 16 -4 10 -12 -9 -16 -12 -60 -5 -73 10 -17 11 -35 1 -29
-11 6 -12 -9 -2 -20 4 -3 8 -21 9 -38 2 -23 0 -28 -6 -18 -8 13 -10 12 -10 -2
0 -10 5 -18 12 -18 6 0 3 -7 -8 -15 -18 -13 -18 -14 -1 -15 12 0 16 -4 10 -12
-9 -16 -12 -60 -5 -73 10 -17 11 -35 1 -29 -11 6 -12 -9 -2 -20 4 -3 8 -21 9
-38 2 -23 0 -28 -6 -18 -8 13 -10 12 -10 -2 0 -10 6 -18 13 -18 9 0 9 -2 -1
-9 -8 -4 -14 -12 -14 -16 0 -4 6 -12 14 -16 10 -7 10 -9 1 -9 -7 0 -13 -5 -13
-11 0 -5 4 -8 8 -5 4 2 8 -6 8 -19 0 -13 -4 -21 -8 -19 -4 3 -8 1 -8 -5 0 -5
6 -12 13 -14 9 -4 9 -6 -1 -6 -8 -1 -10 -6 -5 -13 12 -20 14 -50 3 -43 -5 3
-10 2 -10 -4 0 -5 6 -12 13 -14 9 -4 8 -6 -2 -6 -10 -1 -11 -5 -3 -13 15 -19
15 -30 0 -39 -11 -7 -10 -9 1 -9 11 0 9 -4 -5 -15 -18 -15 -18 -15 0 -8 15 5
17 3 11 -7 -10 -17 -14 -71 -5 -65 4 2 7 -2 7 -10 0 -8 -4 -12 -9 -9 -10 6
-11 -10 -1 -20 4 -3 8 -21 9 -38 2 -23 0 -28 -6 -18 -8 13 -10 12 -10 -2 0
-10 5 -18 12 -18 6 0 3 -7 -8 -15 -18 -13 -18 -14 -1 -15 12 0 16 -4 10 -12
-9 -16 -12 -60 -5 -73 10 -17 11 -35 1 -29 -11 6 -12 -9 -2 -20 4 -3 8 -21 9
-38 2 -23 0 -28 -6 -18 -8 13 -10 12 -10 -2 0 -10 5 -18 12 -18 6 0 3 -7 -8
-15 -18 -13 -18 -14 -1 -15 12 0 16 -4 10 -12 -9 -16 -12 -60 -5 -73 10 -17
11 -35 1 -29 -11 6 -12 -9 -2 -20 4 -3 8 -21 9 -38 2 -23 0 -28 -6 -18 -8 13
-10 12 -10 -2 0 -10 6 -18 13 -18 9 0 9 -2 -1 -9 -8 -4 -14 -12 -14 -16 0 -4
6 -12 14 -16 10 -7 10 -9 1 -9 -7 0 -13 -5 -13 -11 0 -5 4 -8 8 -5 4 2 8 -6 8
-19 0 -13 -4 -21 -8 -19 -4 3 -8 1 -8 -5 0 -5 6 -12 13 -14 9 -4 9 -6 -1 -6
-8 -1 -10 -6 -5 -13 12 -20 14 -50 3 -43 -5 3 -10 2 -10 -4 0 -5 6 -12 13 -14
9 -4 9 -6 -1 -6 -8 -1 -10 -6 -5 -13 11 -18 10 -32 -2 -40 -6 -5 -4 -8 4 -8
11 0 9 -4 -5 -15 -18 -15 -18 -15 0 -8 15 5 17 3 11 -7 -10 -17 -14 -71 -5
-65 4 2 7 -2 7 -10 0 -8 -4 -12 -9 -9 -10 6 -11 -10 -1 -20 4 -3 8 -21 9 -38
2 -23 0 -28 -6 -18 -8 13 -10 12 -10 -2 0 -10 5 -18 12 -18 6 0 3 -7 -8 -15
-18 -13 -18 -14 -1 -15 12 0 16 -4 10 -12 -9 -16 -12 -60 -5 -73 10 -17 11
-35 1 -29 -11 6 -12 -9 -2 -20 4 -3 8 -21 9 -38 2 -23 0 -28 -6 -18 -8 13 -10
12 -10 -2 0 -10 5 -18 12 -18 6 0 3 -7 -8 -15 -18 -13 -18 -14 -1 -15 12 0 16
-4 10 -12 -9 -16 -12 -60 -5 -73 10 -17 11 -35 1 -29 -11 6 -12 -9 -2 -20 4
-3 8 -21 9 -38 2 -23 0 -28 -6 -18 -8 13 -10 12 -10 -2 0 -10 5 -18 12 -18 6
0 3 -7 -8 -15 -18 -13 -18 -14 -1 -15 12 0 16 -4 10 -12 -9 -16 -12 -60 -5
-73 10 -17 11 -35 1 -29 -11 6 -12 -9 -2 -20 4 -3 8 -21 9 -38 2 -23 0 -28 -6
-18 -8 13 -10 12 -10 -2 0 -10 5 -18 12 -18 6 0 3 -7 -8 -15 -18 -14 -18 -14
0 -15 14 0 16 -3 7 -13 -6 -8 -8 -17 -4 -21 10 -10 13 -37 3 -31 -5 3 -11 1
-15 -5 -3 -5 1 -10 10 -10 10 0 13 -4 8 -12 -9 -16 -12 -60 -5 -73 10 -17 11
-35 1 -29 -11 6 -12 -9 -2 -20 4 -3 8 -21 9 -38 2 -23 0 -28 -6 -18 -8 13 -10
12 -10 -2 0 -10 5 -18 12 -18 6 0 3 -7 -8 -15 -18 -14 -18 -14 0 -15 14 0 16
-3 7 -13 -6 -8 -8 -17 -4 -21 10 -10 13 -37 3 -31 -5 3 -11 1 -15 -5 -3 -5 1
-10 10 -10 10 0 13 -4 8 -12 -9 -16 -12 -60 -5 -73 10 -17 11 -35 1 -29 -11 6
-12 -9 -2 -20 4 -3 8 -21 9 -38 2 -23 0 -28 -6 -18 -8 13 -10 12 -10 -2 0 -10
5 -18 12 -18 6 0 3 -7 -8 -15 -18 -14 -18 -14 0 -15 14 0 16 -3 7 -13 -6 -8
-8 -17 -4 -21 10 -10 13 -37 3 -31 -5 3 -11 1 -15 -5 -3 -5 1 -10 10 -10 10 0
13 -4 8 -12 -9 -16 -12 -60 -5 -73 10 -17 11 -35 1 -29 -11 6 -12 -9 -2 -20 4
-3 8 -21 9 -38 2 -23 0 -28 -6 -18 -8 13 -10 12 -10 -2 0 -10 5 -18 12 -18 6
0 3 -7 -8 -15 -18 -13 -18 -14 -1 -15 12 0 16 -4 10 -12 -9 -16 -12 -60 -5
-73 10 -17 11 -35 1 -29 -11 6 -12 -9 -2 -20 4 -3 8 -21 9 -38 2 -23 0 -28 -6
-18 -8 13 -10 12 -10 -2 0 -10 5 -18 12 -18 6 0 3 -7 -8 -15 -18 -13 -18 -14
-1 -15 12 0 16 -4 10 -12 -9 -16 -12 -60 -5 -73 10 -17 11 -35 1 -29 -11 6
-12 -9 -2 -20 4 -3 8 -21 9 -38 2 -23 0 -28 -6 -18 -8 13 -10 12 -10 -2 0 -10
5 -18 12 -18 6 0 3 -7 -8 -15 -18 -13 -18 -14 -1 -15 12 0 16 -4 10 -12 -9
-16 -12 -60 -5 -73 10 -17 11 -35 1 -29 -11 6 -12 -9 -2 -20 4 -3 8 -21 9 -38
2 -23 0 -28 -6 -18 -8 13 -10 12 -10 -2 0 -10 6 -18 13 -18 9 0 9 -2 -1 -9 -8
-4 -14 -12 -14 -16 0 -4 6 -12 14 -16 10 -7 10 -9 1 -9 -7 0 -13 -5 -13 -11 0
-5 4 -8 8 -5 4 2 8 -6 8 -19 0 -13 -4 -21 -8 -19 -4 3 -8 1 -8 -5 0 -5 6 -12
13 -14 9 -4 9 -6 -1 -6 -8 -1 -10 -6 -5 -13 12 -20 14 -50 3 -43 -5 3 -10 2
-10 -4 0 -5 6 -12 13 -14 9 -4 8 -6 -2 -6 -10 -1 -11 -5 -3 -14 15 -18 15 -29
0 -38 -11 -7 -10 -9 1 -9 11 0 9 -4 -5 -15 -18 -15 -18 -15 0 -8 15 5 17 3 11
-7 -10 -17 -14 -71 -5 -65 4 2 7 -2 7 -10 0 -8 -4 -12 -9 -9 -10 6 -11 -10 -1
-20 4 -3 8 -21 9 -38 2 -23 0 -28 -6 -18 -8 13 -10 12 -10 -2 0 -10 5 -18 12
-18 6 0 3 -7 -8 -15 -18 -13 -18 -14 -1 -15 12 0 16 -4 10 -12 -9 -16 -12 -60
-5 -73 10 -17 11 -35 1 -29 -11 6 -12 -9 -2 -20 4 -3 8 -21 9 -38 2 -23 0 -28
-6 -18 -8 13 -10 12 -10 -2 0 -10 5 -18 12 -18 6 0 3 -7 -8 -15 -18 -13 -18
-14 -1 -15 12 0 16 -4 10 -12 -9 -16 -12 -60 -5 -73 10 -17 11 -35 1 -29 -11
6 -12 -9 -2 -20 4 -3 8 -21 9 -38 2 -23 0 -28 -6 -18 -8 13 -10 12 -10 -2 0
-10 6 -18 13 -18 9 0 9 -2 -1 -9 -17 -11 -17 -21 0 -32 10 -7 10 -9 1 -9 -7 0
-13 -5 -13 -11 0 -5 4 -8 8 -5 4 2 8 -6 8 -19 0 -13 -4 -21 -8 -19 -4 3 -8 1
-8 -5 0 -5 6 -12 13 -14 9 -4 9 -6 -1 -6 -8 -1 -10 -6 -5 -13 12 -20 14 -50 3
-43 -5 3 -10 2 -10 -4 0 -5 6 -12 13 -14 9 -4 9 -6 -1 -6 -8 -1 -10 -6 -5 -13
11 -18 10 -32 -2 -40 -6 -5 -4 -8 4 -8 11 0 9 -4 -5 -15 -18 -15 -18 -15 0 -8
15 5 17 3 10 -8 -4 -8 -8 -24 -9 -36 0 -12 -3 -25 -7 -29 -5 -4 -8 -12 -8 -18
0 -6 5 -4 10 4 6 9 10 10 10 3 0 -16 -17 -26 -25 -13 -4 6 -11 8 -16 5 -5 -4
-9 0 -10 7 0 7 -4 4 -9 -7 -5 -11 -9 -14 -9 -7 -1 7 -6 10 -12 7 -6 -4 -23 -8
-39 -9 -21 -2 -27 2 -22 14 5 12 3 13 -9 4 -18 -15 -70 -15 -63 0 3 6 -1 3 -9
-7 -16 -19 -51 -13 -40 7 3 6 1 6 -8 -1 -17 -17 -32 -17 -24 0 4 6 0 4 -8 -6
-16 -19 -52 -13 -40 7 4 6 -1 5 -10 -3 -14 -11 -17 -11 -18 0 0 8 -4 5 -9 -6
-5 -11 -9 -14 -9 -7 -1 7 -6 10 -12 7 -6 -4 -23 -8 -39 -9 -21 -2 -27 2 -22
14 5 12 3 13 -9 4 -18 -15 -70 -15 -63 0 3 6 -1 3 -9 -7 -16 -19 -52 -13 -40
7 4 6 -1 5 -10 -3 -14 -11 -17 -11 -18 0 0 8 -4 5 -9 -6 -5 -11 -9 -14 -9 -7
-1 7 -6 10 -12 7 -6 -4 -23 -8 -39 -9 -21 -2 -27 2 -22 14 5 12 3 13 -9 4 -18
-15 -70 -15 -63 0 3 6 -1 3 -9 -7 -16 -19 -52 -13 -40 7 4 6 -1 5 -10 -3 -14
-11 -17 -11 -18 0 0 8 -4 5 -9 -6 -5 -11 -9 -14 -9 -7 -1 7 -6 10 -12 7 -6 -4
-23 -8 -39 -9 -21 -2 -27 2 -22 14 5 12 3 13 -9 4 -18 -15 -70 -15 -63 0 3 6
-1 3 -9 -7 -16 -19 -52 -13 -40 7 4 6 -1 5 -10 -3 -14 -11 -17 -11 -18 0 0 8
-4 5 -9 -6 -5 -11 -9 -14 -9 -7 -1 7 -6 10 -12 7 -6 -4 -23 -8 -39 -9 -21 -2
-27 2 -22 14 5 12 3 13 -9 4 -18 -15 -70 -15 -63 0 3 6 -1 3 -9 -7 -16 -19
-52 -13 -40 7 4 6 -1 5 -10 -3 -14 -11 -17 -11 -18 0 0 8 -4 5 -9 -6 -5 -11
-9 -14 -9 -7 -1 7 -6 10 -12 7 -6 -4 -23 -8 -39 -9 -21 -2 -27 2 -22 14 5 12
3 13 -9 4 -8 -6 -29 -12 -48 -12 -18 0 -36 -3 -39 -6 -3 -3 -14 2 -25 11 -11
10 -17 12 -13 6 4 -8 1 -13 -9 -13 -10 0 -14 5 -10 13 4 6 0 4 -8 -6 -16 -19
-52 -13 -40 7 4 6 -1 5 -10 -3 -14 -11 -17 -11 -18 0 0 8 -4 5 -9 -6 -5 -11
-9 -14 -9 -7 -1 8 -6 10 -13 6 -7 -5 -25 -7 -41 -6 -15 1 -36 -2 -47 -8 -15
-8 -20 -8 -20 2 0 10 -2 10 -9 0 -4 -7 -17 -15 -27 -16 -10 -2 -18 -9 -16 -16
1 -6 -2 -9 -7 -5 -6 3 -19 -3 -31 -15 -11 -11 -20 -18 -20 -15 0 3 -9 -4 -20
-15 -11 -11 -20 -24 -20 -29 0 -6 -8 -16 -19 -23 -10 -7 -17 -21 -15 -30 1
-10 -3 -16 -9 -15 -7 1 -11 -6 -9 -15 2 -10 -3 -18 -10 -18 -9 0 -9 -3 0 -12
8 -8 8 -17 1 -30 -5 -10 -7 -24 -3 -30 5 -7 2 -9 -8 -6 -8 4 -15 0 -15 -8 0
-7 4 -11 9 -8 4 3 9 -12 10 -33 2 -52 2 -55 16 -79 6 -12 8 -24 5 -28 -3 -3
-1 -6 7 -6 10 0 10 -3 0 -16 -11 -12 -11 -14 -1 -12 7 2 18 -6 24 -17 7 -11
18 -24 25 -28 7 -5 10 -13 6 -18 -3 -5 -2 -9 3 -8 19 3 34 -2 29 -10 -3 -5 4
-11 15 -14 12 -3 18 -10 15 -15 -3 -6 2 -9 11 -8 10 2 21 -1 24 -6 3 -5 16
-10 27 -11 12 -1 22 -5 22 -9 0 -4 16 -5 35 -4 19 2 32 0 29 -5 -3 -5 -10 -6
-16 -3 -7 4 -8 2 -4 -4 5 -9 13 -9 26 -2 27 14 53 13 44 -3 -6 -9 -5 -9 8 0 8
7 18 10 22 6 10 -11 37 -12 30 -2 -3 5 -10 6 -16 3 -7 -4 -8 -2 -4 4 5 9 13 9
29 0 12 -6 22 -11 22 -11 0 0 11 6 25 13 23 12 24 12 11 -3 -15 -19 -1 -23 17
-5 9 9 12 9 12 -2 0 -9 5 -8 16 6 8 10 13 13 9 7 -3 -7 -3 -13 2 -14 4 0 16
-2 26 -4 9 -2 15 1 11 6 -3 5 -10 6 -16 3 -7 -4 -8 -2 -4 4 5 9 13 9 27 2 10
-6 19 -8 19 -4 0 3 8 0 17 -7 11 -10 14 -10 9 -1 -9 16 6 16 23 -1 9 -7 11 -7
8 -1 -8 14 20 27 28 14 4 -6 15 -6 28 2 20 10 21 10 8 -5 -15 -19 -1 -23 17
-5 9 9 12 9 12 -2 0 -9 5 -8 16 6 8 10 13 13 9 7 -3 -7 -3 -13 2 -14 4 0 16
-2 26 -4 9 -2 15 1 11 6 -3 5 -10 6 -16 3 -7 -4 -8 -2 -4 4 5 9 13 9 27 2 10
-6 19 -8 19 -4 0 3 8 0 17 -7 11 -10 14 -10 9 -1 -9 16 6 16 23 0 9 -8 11 -8
8 -2 -8 14 20 27 28 14 4 -6 15 -6 28 2 20 10 21 10 8 -5 -15 -19 -1 -23 17
-5 9 9 12 9 12 -2 0 -9 5 -8 16 6 8 10 13 13 9 7 -3 -7 -3 -13 2 -14 4 0 16
-2 26 -4 9 -2 15 1 11 6 -3 5 -10 6 -16 3 -7 -4 -8 -2 -4 4 5 9 13 9 27 2 10
-6 19 -8 19 -4 0 3 8 0 17 -7 11 -10 14 -10 9 -1 -9 16 6 16 23 -1 9 -7 11 -7
8 -1 -8 14 20 27 28 14 4 -6 15 -6 28 2 20 10 21 10 8 -5 -15 -19 -1 -23 17
-5 9 9 12 9 12 -2 0 -9 5 -8 16 6 8 10 13 13 9 7 -3 -7 -3 -13 2 -14 4 0 16
-2 26 -4 9 -2 15 1 11 6 -3 5 -10 6 -16 3 -7 -4 -8 -2 -4 4 5 9 13 9 27 2 10
-6 19 -8 19 -4 0 3 8 0 17 -7 11 -10 14 -10 9 -1 -9 16 6 16 23 -1 9 -7 11 -7
8 -1 -8 14 20 27 28 14 4 -6 15 -6 28 2 20 10 21 10 8 -5 -15 -19 -1 -23 17
-5 9 9 12 9 12 -2 0 -9 5 -8 16 6 8 10 13 13 9 7 -3 -7 -3 -13 2 -14 4 0 16
-2 26 -4 9 -2 15 1 11 6 -3 5 -10 6 -16 3 -7 -4 -8 -2 -4 4 5 9 13 9 27 2 10
-6 19 -8 19 -4 0 3 8 0 17 -7 11 -10 14 -10 9 -1 -9 16 6 16 23 0 9 -8 11 -8
8 -2 -8 14 20 27 28 14 4 -6 15 -6 28 2 20 10 21 10 8 -5 -15 -19 -1 -23 17
-5 9 9 12 9 12 -2 0 -9 5 -8 16 6 8 10 13 13 9 7 -3 -7 -3 -13 2 -14 4 0 16
-2 26 -4 9 -2 15 1 11 6 -3 5 -10 6 -16 3 -7 -4 -8 -2 -4 4 5 9 13 9 27 2 10
-6 19 -8 19 -4 0 3 8 0 17 -7 11 -10 14 -10 9 -2 -9 17 6 17 23 1 9 -8 11 -8
8 -2 -8 14 20 27 28 14 4 -6 15 -6 28 2 20 10 21 10 8 -5 -15 -19 -1 -23 17
-5 9 9 12 9 12 -2 0 -9 5 -8 16 6 8 10 13 13 9 7 -3 -7 -3 -13 2 -14 4 0 16
-2 26 -4 9 -2 15 1 11 6 -3 5 -10 6 -16 3 -7 -4 -8 -2 -4 4 5 9 13 9 27 2 10
-6 19 -8 19 -4 0 3 8 0 17 -7 11 -10 14 -10 9 -1 -4 6 -3 12 1 12 5 0 15 -6
22 -12 9 -8 11 -8 8 -2 -8 14 20 27 28 14 4 -6 15 -6 28 2 20 10 21 10 8 -5
-15 -19 -1 -23 17 -5 9 9 12 9 12 -2 0 -9 5 -8 16 6 8 10 13 13 9 7 -3 -7 -3
-13 2 -14 4 0 16 -2 26 -4 9 -2 15 1 11 6 -3 5 -10 6 -16 3 -7 -4 -8 -2 -4 4
5 9 13 9 27 2 10 -6 19 -8 19 -4 0 3 8 0 17 -7 11 -10 14 -10 9 -2 -9 16 6 17
21 2 8 -8 13 -7 18 2 6 8 4 10 -5 4 -9 -6 -11 -4 -6 4 6 9 13 8 27 -5 18 -17
19 -17 13 -1 -5 15 -3 16 20 7 15 -5 25 -6 22 -1 -3 5 1 12 10 15 10 4 13 2 8
-7 -6 -9 -5 -9 8 0 8 7 18 10 21 6 4 -3 7 -1 7 6 0 8 7 11 15 7 9 -3 19 3 25
14 6 11 16 19 23 17 7 -1 11 4 9 11 -1 8 2 11 8 7 5 -3 13 1 16 9 3 9 12 16
20 16 8 0 13 3 13 8 -3 19 2 33 10 28 5 -4 12 7 16 23 3 16 12 32 19 34 7 3
12 20 11 40 0 20 3 33 9 30 5 -4 7 1 3 10 -3 9 -1 18 6 21 7 2 3 5 -8 6 -18 1
-18 2 5 16 14 8 17 13 8 10 -10 -3 -18 -1 -18 4 0 6 5 10 10 10 6 0 5 9 -2 21
-11 18 -11 23 0 26 10 4 10 8 1 19 -9 11 -9 14 1 14 9 0 7 7 -6 22 -14 15 -15
20 -4 16 11 -4 15 1 15 17 0 13 -3 21 -7 18 -5 -2 -8 1 -8 6 0 6 5 11 11 11 7
0 4 11 -6 26 -9 15 -13 24 -7 20 13 -8 20 82 8 94 -7 7 -6 10 1 10 11 0 10 41
-2 59 -3 6 -1 11 5 11 8 0 8 6 0 20 -8 14 -8 20 0 20 8 0 8 6 0 20 -8 14 -8
20 0 20 8 0 8 6 0 20 -8 14 -8 20 0 20 8 0 8 6 0 20 -8 14 -8 20 0 20 8 0 8 6
0 20 -8 14 -8 20 0 20 8 0 8 6 0 20 -8 14 -8 20 0 20 7 0 8 6 2 16 -5 9 -6 33
-2 55 5 28 3 45 -8 60 -9 12 -11 19 -5 16 14 -9 22 80 9 93 -6 6 -6 10 0 10
14 0 8 108 -8 127 -7 9 -8 14 -2 10 15 -9 24 79 10 93 -6 6 -6 10 0 10 14 0 8
108 -8 127 -7 9 -8 14 -2 10 15 -9 24 56 11 78 -5 9 -4 15 3 15 8 0 8 6 0 20
-8 14 -8 20 0 20 8 0 8 6 0 20 -8 14 -8 20 0 20 8 0 8 6 0 20 -8 14 -8 20 0
20 8 0 8 6 0 20 -8 14 -8 20 0 20 8 0 8 6 0 20 -8 14 -8 20 0 20 8 0 8 6 0 20
-8 14 -8 20 0 20 7 0 8 6 1 18 -6 11 -6 24 -1 32 5 9 5 19 -2 27 -6 7 -6 13
-2 13 14 0 7 109 -8 127 -7 9 -8 14 -2 10 15 -9 24 79 10 93 -6 6 -6 10 -1 10
11 0 12 51 1 68 -4 7 -2 12 5 12 7 0 5 8 -7 22 -14 15 -15 20 -4 16 11 -4 15
1 15 17 0 13 -3 21 -7 18 -5 -2 -8 1 -8 6 0 6 5 11 11 11 7 0 4 11 -6 26 -9
15 -13 24 -7 20 13 -8 20 82 8 94 -7 7 -6 10 1 10 11 0 10 41 -2 59 -3 6 -1
11 5 11 8 0 8 6 0 20 -8 14 -8 20 0 20 8 0 8 6 0 20 -8 14 -8 20 0 20 8 0 8 6
0 20 -8 14 -8 20 0 20 8 0 8 6 0 20 -8 14 -8 20 0 20 8 0 8 6 0 20 -8 14 -8
20 0 20 8 0 8 6 0 20 -8 14 -8 20 0 20 7 0 8 6 2 16 -5 9 -6 33 -2 55 5 28 3
45 -8 60 -9 12 -11 19 -5 16 14 -9 22 80 9 93 -6 6 -6 10 0 10 14 0 8 108 -8
127 -7 9 -8 14 -2 10 15 -9 24 79 10 93 -6 6 -6 10 0 10 14 0 8 108 -8 127 -7
9 -8 14 -2 10 15 -9 24 56 11 78 -5 9 -4 15 3 15 8 0 8 6 0 20 -8 14 -8 20 0
20 8 0 8 6 0 20 -8 14 -8 20 0 20 8 0 8 6 0 20 -8 14 -8 20 0 20 8 0 8 6 0 20
-8 14 -8 20 0 20 8 0 8 6 0 20 -8 14 -8 20 0 20 8 0 8 6 0 20 -8 14 -8 20 0
20 7 0 8 6 1 18 -6 11 -6 24 -1 32 5 9 5 19 -2 27 -6 7 -6 13 -2 13 14 0 7
109 -8 127 -7 9 -8 14 -2 10 15 -9 24 79 10 93 -6 6 -6 10 0 10 10 0 11 51 0
68 -4 7 -2 12 5 12 7 0 5 8 -7 22 -14 15 -15 20 -4 16 11 -4 15 1 15 17 0 13
-3 21 -7 18 -5 -2 -8 1 -8 6 0 6 5 11 11 11 7 0 4 11 -6 26 -9 15 -13 24 -7
20 13 -8 20 82 8 94 -7 7 -6 10 1 10 11 0 10 41 -2 59 -3 6 -1 11 5 11 8 0 8
6 0 20 -8 14 -8 20 0 20 8 0 8 6 0 20 -8 14 -8 20 0 20 8 0 8 6 0 20 -8 14 -8
20 0 20 8 0 8 6 0 20 -8 14 -8 20 0 20 8 0 8 6 0 20 -8 14 -8 20 0 20 8 0 8 6
0 20 -8 14 -8 20 0 20 7 0 8 6 2 16 -5 9 -6 33 -2 55 5 28 3 45 -8 60 -9 12
-10 19 -4 15 9 -5 12 6 12 38 0 25 5 48 12 52 7 4 8 3 4 -4 -5 -8 0 -12 13
-12 12 0 21 6 21 13 0 9 2 9 8 0 5 -8 13 -9 22 -3 8 5 21 5 30 0 9 -5 22 -5
30 0 8 5 22 5 32 -1 14 -8 16 -6 11 8 -6 15 -4 16 9 5 13 -10 17 -10 21 0 4
10 6 10 6 1 1 -7 6 -13 12 -13 5 0 7 6 3 13 -5 7 0 6 11 -3 20 -16 23 -15 43
9 11 14 11 14 6 -4 -6 -20 -5 -20 10 -1 9 11 16 14 16 8 0 -7 5 -12 11 -12 5
0 8 4 5 8 -6 10 48 7 65 -3 8 -6 10 -4 4 5 -6 9 -2 10 15 5 13 -4 20 -3 17 2
-3 5 3 9 13 9 10 0 17 -3 15 -6 -2 -3 6 -7 18 -7 17 -2 19 0 7 8 -11 7 2 9 42
6 34 -2 54 1 51 7 -4 5 1 7 12 3 9 -4 24 -2 31 4 11 9 14 8 14 -1 0 -9 4 -9
13 -3 6 6 19 11 27 11 8 0 26 4 39 8 19 6 22 4 16 -7 -8 -12 -6 -12 8 0 9 7
17 10 17 7 0 -4 9 -2 20 4 15 8 20 8 20 -2 0 -8 3 -9 8 -3 8 12 16 13 71 17
23 2 41 6 41 9 0 3 11 5 25 4 14 -2 25 1 25 7 0 6 9 8 20 5 11 -3 20 0 20 6 0
8 3 8 8 2 10 -14 36 -12 55 3 10 9 17 10 22 2 4 -7 13 -6 28 2 12 7 29 13 37
13 8 0 21 4 29 9 10 7 12 6 6 -4 -5 -8 -3 -11 6 -8 8 3 13 11 11 18 -2 10 0
11 11 2 9 -8 17 -8 24 -1 6 6 21 9 34 7 13 -2 30 4 37 12 12 13 13 13 6 0 -6
-12 -5 -13 7 -4 8 6 22 10 32 9 9 -2 17 1 17 5 0 5 14 7 30 5 17 -2 28 0 25 6
-5 7 40 14 68 10 4 0 7 4 7 10 0 6 9 9 20 6 11 -3 20 -1 20 5 0 5 5 6 11 3 5
-4 19 1 30 11 19 17 20 17 14 -2 -6 -18 -6 -18 8 -1 9 11 21 15 32 10 12 -4
16 -3 12 4 -4 6 -1 11 6 10 35 -1 48 4 41 16 -5 9 -4 9 6 0 9 -9 23 -7 57 8
24 10 41 14 38 9 -4 -6 10 -1 30 10 27 15 40 18 50 10 10 -8 15 -8 21 1 5 8 3
9 -6 4 -9 -5 -11 -4 -6 4 4 6 16 9 26 6 10 -3 21 -1 25 5 3 6 11 8 16 5 5 -4
9 -2 9 4 0 6 7 8 15 5 9 -4 18 1 21 11 5 13 9 14 15 3 6 -9 9 -10 9 -1 0 7 7
10 15 7 8 -4 15 -1 15 6 0 6 5 8 10 5 6 -3 10 -2 10 3 0 5 11 8 25 7 14 -2 23
1 19 6 -3 5 4 10 15 10 37 2 42 4 49 14 6 9 23 14 60 17 6 1 12 5 12 10 0 5 4
7 9 3 5 -3 12 -1 16 5 4 6 10 8 15 5 5 -3 13 3 19 12 6 10 11 13 11 6 0 -8 6
-8 25 0 14 7 25 15 25 19 0 3 11 5 25 4 13 -2 22 0 20 4 -3 5 2 10 9 13 8 3
17 1 20 -6 2 -7 5 -3 5 7 1 11 4 16 8 13 3 -4 13 -1 21 6 13 10 14 9 7 -3 -7
-12 -6 -13 7 -3 8 7 19 9 23 5 5 -4 5 -1 1 6 -4 6 -2 13 3 13 20 3 26 5 68 26
29 14 44 17 47 9 2 -6 5 -3 5 8 1 11 6 16 15 13 8 -3 16 -1 18 4 2 5 13 11 25
12 12 0 19 5 17 9 -3 4 4 8 15 8 11 0 23 5 26 10 4 6 11 8 16 5 5 -4 9 -1 9 4
0 6 9 11 21 11 13 0 18 4 13 12 -5 7 -2 9 9 5 9 -3 17 -1 19 4 2 6 10 12 18
14 37 8 60 18 60 25 0 5 10 10 23 12 12 2 21 9 20 15 -1 6 6 9 17 6 12 -3 22
1 26 10 3 9 12 13 20 10 7 -3 17 2 20 11 3 9 10 13 15 10 5 -3 9 -1 9 5 0 6 6
8 14 5 8 -3 17 0 22 7 5 8 3 10 -6 4 -8 -5 -11 -4 -6 3 4 6 13 9 21 5 8 -3 15
0 15 7 0 6 5 8 10 5 6 -3 10 -2 10 3 0 8 16 16 43 20 4 1 15 8 23 17 9 8 19
13 24 10 5 -3 12 0 16 6 5 8 3 9 -6 4 -9 -5 -11 -4 -6 3 4 7 16 12 27 12 10 0
19 5 19 10 0 6 6 10 14 10 7 0 19 7 26 15 7 9 15 13 17 11 3 -3 14 4 26 15 11
10 28 19 37 19 8 0 23 9 33 20 9 11 24 20 32 20 8 0 15 5 15 11 0 6 7 9 14 6
10 -4 13 -1 9 9 -3 9 2 14 15 14 12 0 24 5 27 10 4 6 11 8 16 5 5 -3 6 1 3 9
-6 15 11 22 39 17 5 -1 6 3 2 9 -3 5 -1 10 5 10 6 0 8 4 5 10 -3 6 1 7 10 4 9
-4 26 4 41 19 14 15 35 29 45 32 11 4 17 11 14 16 -4 5 0 9 8 9 8 0 24 9 37
20 12 11 26 17 31 15 4 -3 11 0 15 6 5 8 2 10 -7 5 -8 -4 -5 -1 6 8 11 8 25
20 31 25 7 5 15 7 18 4 3 -4 6 -1 6 6 0 7 5 9 12 5 7 -4 8 -3 4 5 -4 6 0 14
10 18 10 3 25 13 33 20 71 61 86 73 94 73 4 0 5 5 1 12 -5 8 -2 9 9 5 11 -4
17 -1 17 9 0 8 5 12 10 9 6 -3 10 -1 10 5 0 6 5 8 10 5 6 -4 9 -1 8 7 -2 7 5
12 14 12 10 -1 16 1 15 5 -1 3 6 17 16 31 9 13 17 20 17 15 0 -6 5 -2 11 8 6
9 15 14 21 11 6 -4 9 -3 6 2 -3 5 0 15 8 22 8 7 14 10 14 8 0 -3 16 10 36 29
20 19 41 35 47 35 5 0 8 2 5 5 -8 8 70 90 85 90 7 1 11 6 9 13 -1 7 3 12 9 12
14 0 39 26 39 40 0 6 4 9 8 6 4 -2 17 9 27 25 11 16 26 29 33 29 7 0 11 4 7 9
-3 6 4 15 15 21 11 6 17 16 14 22 -4 6 -3 8 4 5 5 -4 30 17 53 45 24 29 52 61
63 71 10 9 16 17 12 17 -4 0 -1 7 8 15 8 8 21 15 28 15 10 0 9 3 -2 10 -13 8
-12 10 4 10 11 0 17 3 13 6 -8 8 16 33 25 27 4 -2 5 3 2 12 -4 10 -2 15 7 13
7 -2 13 3 14 10 0 6 4 11 8 10 4 -2 15 12 24 29 9 19 20 30 27 26 6 -3 8 -3 4
2 -10 11 11 47 23 40 5 -4 9 -3 8 2 -3 20 2 34 11 28 6 -3 11 -1 11 4 1 6 2
15 3 20 0 6 7 16 15 23 12 11 13 11 6 -1 -5 -10 -4 -12 4 -7 6 4 9 11 6 16 -3
5 5 19 17 31 13 12 17 19 11 15 -9 -5 -11 -2 -7 8 3 9 10 13 15 10 8 -5 13 9
10 29 0 4 5 6 11 5 7 -2 12 2 11 9 -2 7 6 17 17 23 11 6 18 15 15 19 -6 10 30
53 38 45 3 -3 3 3 0 14 -2 11 1 23 8 27 8 6 10 4 4 -5 -6 -9 -4 -11 4 -6 7 5
10 11 7 14 -4 3 4 17 16 31 17 18 18 21 4 11 -18 -14 -18 -14 -6 7 8 12 17 20
21 17 4 -2 10 3 13 12 4 10 2 13 -7 8 -9 -6 -9 -5 0 8 7 8 10 18 6 22 -4 4 0
4 10 0 12 -4 17 -1 17 12 0 11 7 28 15 38 8 10 12 23 9 27 -3 5 2 6 11 3 11
-5 14 -2 9 10 -3 9 -1 16 6 16 6 0 8 5 5 10 -3 6 -1 10 5 10 6 0 9 4 6 9 -3 5
1 12 10 15 8 3 13 10 10 14 -3 5 1 17 8 28 8 10 12 24 9 31 -3 7 2 16 11 19 9
3 16 15 16 25 0 11 7 19 18 19 14 0 15 2 2 10 -10 6 -11 10 -2 10 6 0 11 3 11
8 -3 19 2 33 10 28 5 -4 8 2 7 11 -2 10 0 20 3 23 13 11 40 71 28 64 -8 -5 -8
-3 1 9 8 9 10 22 6 28 -4 7 -3 10 2 7 5 -3 15 0 22 8 10 11 10 14 0 14 -6 0
-3 7 8 15 12 9 14 14 6 15 -10 0 -9 4 2 16 9 8 14 20 11 25 -4 5 -1 9 5 9 7 0
10 7 6 15 -3 8 -1 15 3 15 5 0 12 7 15 16 4 10 2 13 -7 8 -6 -4 -4 2 7 14 11
13 16 30 13 42 -3 11 -1 18 3 15 5 -3 12 9 16 27 4 18 9 35 9 38 1 3 8 26 15
52 8 26 17 45 21 43 3 -3 5 9 4 25 -2 20 3 34 14 40 10 6 11 10 3 10 -9 0 -9
6 3 23 8 13 12 27 8 31 -5 4 1 14 11 22 17 12 17 14 3 14 -15 0 -15 4 3 36 11
19 15 32 9 28 -9 -5 -10 -2 -6 10 4 10 7 20 7 22 0 3 6 2 13 -2 8 -5 8 -2 -2
9 -9 12 -10 17 -2 17 7 0 9 5 5 11 -3 6 0 15 7 20 12 7 12 9 0 9 -9 0 -10 4
-4 13 6 6 11 20 12 30 0 9 2 25 2 35 1 9 6 23 12 30 6 8 5 12 -4 12 -10 0 -10
3 -2 11 6 6 9 18 6 27 -4 9 -2 13 4 9 6 -4 9 5 7 24 -2 17 1 40 7 51 9 16 8
19 -3 12 -10 -6 -11 -5 -1 7 10 12 10 18 0 29 -7 8 -8 10 -1 7 7 -4 14 3 16
18 3 13 1 22 -3 19 -5 -3 -9 0 -9 5 0 6 5 11 11 11 8 0 7 6 -2 17 -10 11 -10
14 -1 9 6 -4 12 -3 12 1 0 5 -6 15 -12 22 -8 9 -8 11 -2 8 7 -4 14 0 18 8 3 8
0 15 -6 15 -6 0 -7 5 -2 13 11 14 11 37 1 54 -4 6 -3 14 3 18 5 3 8 19 5 35
-4 25 -2 28 12 23 17 -7 17 -6 1 11 -21 20 -24 41 -5 30 8 -5 8 -2 -2 9 -7 9
-9 17 -4 17 5 0 9 10 10 23 0 12 -1 16 -4 9 -3 -6 -9 -10 -14 -6 -5 3 1 14 13
25 13 12 17 18 11 14 -7 -3 -13 -3 -13 2 -1 4 -2 36 -3 71 -2 39 -8 66 -16 71
-11 7 -11 10 0 14 9 3 7 6 -6 6 -15 1 -17 3 -6 10 11 7 9 10 -8 16 -11 3 -21
11 -21 16 0 6 6 7 13 3 6 -4 -8 13 -33 38 -25 24 -48 43 -52 41 -5 -2 -8 3 -8
11 0 8 -5 18 -12 22 -8 5 -9 1 -5 -12 7 -18 7 -18 -8 0 -8 11 -15 16 -15 10 0
-5 -6 -2 -13 7 -7 9 -25 16 -44 15 -17 -1 -29 2 -26 7 2 4 -1 7 -7 7 -6 0 -8
5 -4 12 4 7 3 8 -5 4 -6 -4 -9 -11 -6 -15 9 -16 -109 -7 -123 9 -10 13 -11 12
-5 -4 4 -12 2 -17 -4 -13 -16 10 -64 16 -58 7 3 -4 -3 -7 -12 -5 -10 2 -22 4
-26 4 -5 1 -5 7 -1 14 6 9 5 9 -8 0 -8 -7 -19 -9 -24 -5 -4 4 -2 -2 6 -12 14
-18 14 -18 -5 -9 -11 6 -46 10 -78 9 -43 -1 -61 3 -68 14 -7 13 -8 13 -9 0 0
-21 -53 -20 -62 0 -5 11 -7 10 -7 -5 -1 -17 -3 -17 -11 -5 -5 8 -10 11 -10 5
0 -5 -11 -10 -24 -10 -19 0 -22 3 -14 13 8 9 7 11 -6 6 -9 -3 -16 -11 -16 -16
0 -6 -6 -5 -15 2 -8 7 -15 8 -15 3 0 -10 -47 -9 -57 0 -2 3 -18 1 -34 -3 -20
-6 -29 -5 -29 3 0 7 -4 6 -10 -3 -9 -13 -10 -13 -10 0 0 9 -3 11 -8 5 -4 -5
-17 -10 -29 -11 -18 0 -20 2 -11 13 8 11 7 12 -6 7 -9 -3 -16 -9 -16 -13 0
-12 -72 -4 -81 10 -7 11 -9 11 -9 -3 0 -10 -3 -18 -6 -18 -4 0 -13 8 -20 18
-10 12 -13 13 -9 2 8 -22 -134 -22 -153 0 -10 13 -11 12 -5 -4 4 -12 2 -17 -4
-13 -16 10 -64 16 -58 7 3 -4 -3 -7 -12 -5 -10 2 -22 4 -26 4 -5 1 -5 7 -1 14
6 9 5 9 -8 0 -8 -7 -19 -9 -24 -5 -4 4 -2 -1 5 -10 19 -26 6 -22 -19 5 -12 12
-19 15 -15 7 8 -22 -134 -22 -153 0 -10 13 -11 12 -5 -4 4 -12 2 -17 -4 -13
-16 10 -64 16 -58 7 3 -4 -3 -7 -12 -5 -10 2 -22 4 -26 4 -5 1 -5 7 -1 14 6 9
5 9 -8 0 -8 -7 -19 -9 -24 -5 -4 4 -2 -2 6 -12 14 -18 14 -18 -5 -9 -11 6 -46
10 -78 9 -43 -1 -61 3 -68 14 -7 13 -8 13 -9 0 0 -10 -12 -15 -38 -16 -59 -2
-104 -11 -111 -21 -3 -6 -14 -9 -23 -7 -10 1 -18 -4 -18 -12 0 -8 -7 -14 -15
-14 -8 0 -15 -5 -15 -11 0 -5 -4 -8 -8 -5 -5 3 -15 -6 -22 -19 -7 -13 -17 -22
-22 -19 -4 3 -8 -2 -8 -11 0 -8 -9 -23 -19 -32 -11 -9 -18 -21 -14 -25 3 -5
-3 -16 -13 -24 -11 -9 -13 -12 -5 -8 10 5 12 3 5 -7 -12 -19 -16 -39 -14 -76
0 -17 -4 -34 -10 -38 -5 -3 -10 -12 -10 -18 0 -7 4 -6 10 3 8 13 10 12 11 -5
1 -11 2 -27 1 -35 0 -8 5 -18 11 -22 8 -5 8 -8 -3 -8 -13 0 -13 -1 0 -10 8 -5
15 -15 16 -22 2 -25 16 -48 27 -41 6 3 7 1 3 -5 -8 -13 54 -82 73 -82 6 0 11
-6 11 -13 0 -13 5 -15 49 -19 14 -2 17 -6 11 -14 -7 -7 -1 -10 21 -9 16 1 32
-2 35 -6 2 -5 12 -5 21 -2 12 5 14 3 8 -8 -8 -12 -6 -12 8 0 13 10 17 10 17 1
0 -10 3 -10 14 -1 10 9 16 9 21 1 5 -8 11 -8 21 1 10 8 14 8 14 0 0 -6 5 -11
11 -11 5 0 7 5 3 12 -4 7 -3 8 4 4 19 -12 53 -16 47 -5 -4 5 -1 9 4 9 6 0 11
-5 11 -12 0 -9 3 -9 11 -1 9 9 18 8 38 -4 22 -13 23 -13 8 0 -17 14 -16 15 7
13 15 0 26 -5 26 -10 0 -5 6 -3 14 3 10 9 16 9 21 1 5 -8 11 -8 21 1 10 8 14
8 14 0 0 -6 5 -11 11 -11 5 0 7 5 3 12 -4 7 -3 8 4 4 19 -12 53 -16 47 -5 -4
5 -1 9 4 9 6 0 11 -5 11 -11 0 -8 6 -7 17 2 13 11 17 11 20 2 3 -7 9 -13 14
-13 6 0 8 4 5 8 -2 4 4 8 15 8 10 0 19 -4 19 -8 0 -5 10 -4 21 3 12 6 19 7 16
2 -4 -5 0 -10 8 -10 8 0 12 4 9 9 -3 4 0 8 5 8 6 0 11 -5 11 -12 0 -9 3 -9 11
-1 9 9 18 8 38 -4 22 -13 23 -13 8 0 -17 14 -16 15 7 13 15 0 26 -5 26 -10 0
-5 6 -3 14 3 10 9 16 9 21 1 5 -8 11 -8 21 1 10 8 14 8 14 0 0 -6 5 -11 11
-11 5 0 7 5 3 12 -4 7 -3 8 4 4 19 -12 53 -16 47 -5 -4 5 -1 9 4 9 6 0 11 -5
11 -12 0 -9 3 -9 11 -1 9 9 18 8 38 -4 22 -13 23 -13 8 0 -17 14 -16 15 7 13
15 0 26 -5 26 -10 0 -5 6 -3 14 3 10 9 16 9 21 1 5 -8 11 -8 21 1 10 8 14 8
14 0 0 -6 5 -11 11 -11 5 0 7 5 3 12 -4 7 -3 8 4 4 19 -12 53 -16 47 -5 -4 5
-1 9 4 9 6 0 11 -5 11 -11 0 -8 6 -7 17 2 13 11 17 11 20 2 3 -7 9 -13 14 -13
6 0 8 4 5 8 -2 4 4 8 15 8 10 0 19 -4 19 -8 0 -5 10 -4 21 3 12 6 19 7 16 2
-4 -5 0 -10 8 -10 8 0 12 4 9 9 -3 4 0 8 5 8 6 0 11 -5 11 -11 0 -8 6 -7 17 2
13 11 17 11 20 2 3 -7 9 -13 14 -13 6 0 8 4 5 8 -2 4 4 8 15 8 10 0 19 -4 19
-9 0 -5 7 -4 15 3 12 10 15 10 15 -1 0 -11 2 -11 10 1 7 11 10 11 10 2 0 -7 4
-11 8 -8 5 3 9 -1 9 -9 0 -8 -5 -15 -11 -15 -6 0 -4 -5 4 -10 8 -5 10 -10 3
-10 -6 0 -10 -13 -9 -30 1 -16 -1 -30 -4 -30 -9 0 -6 -37 3 -46 4 -4 2 -13 -4
-20 -9 -11 -13 -26 -23 -79 -1 -5 -6 -16 -10 -24 -7 -10 -5 -12 5 -6 11 7 11
4 -1 -11 -9 -11 -15 -39 -15 -67 0 -32 -4 -46 -12 -43 -7 3 -10 -4 -7 -20 3
-14 1 -23 -4 -20 -10 6 -9 -24 1 -42 6 -8 3 -10 -9 -5 -13 5 -16 3 -11 -10 4
-10 1 -17 -6 -17 -8 0 -6 -4 3 -10 12 -7 12 -10 1 -10 -7 0 -11 -6 -8 -14 3
-8 0 -17 -7 -19 -7 -3 -12 -19 -11 -36 1 -22 -3 -31 -14 -31 -14 0 -14 -2 -1
-10 10 -6 11 -10 2 -10 -6 0 -11 -3 -11 -7 4 -23 -2 -43 -11 -38 -6 3 -7 -1
-4 -9 3 -9 2 -16 -3 -16 -5 0 -9 -12 -8 -27 0 -18 -5 -27 -13 -25 -8 1 -11 -2
-7 -8 4 -6 1 -18 -7 -27 -11 -14 -11 -16 2 -8 11 6 10 3 -3 -12 -9 -11 -14
-23 -11 -26 4 -4 -1 -9 -10 -13 -9 -3 -16 -10 -16 -16 0 -5 6 -6 13 -2 9 6 9
5 0 -8 -7 -8 -9 -19 -5 -23 4 -5 2 -5 -5 -1 -8 4 -16 -7 -23 -33 -5 -21 -16
-44 -24 -50 -8 -7 -13 -23 -11 -37 1 -13 0 -22 -3 -19 -8 8 -34 -34 -27 -45 3
-6 -1 -10 -10 -10 -11 0 -15 -5 -11 -15 3 -8 1 -15 -5 -15 -6 0 -8 -7 -5 -16
3 -8 2 -12 -4 -9 -6 3 -10 -3 -10 -15 0 -12 -4 -18 -10 -15 -5 3 -10 -3 -10
-14 0 -12 -5 -21 -11 -21 -6 0 -8 -7 -5 -16 3 -8 2 -12 -4 -9 -5 3 -12 -5 -16
-19 -3 -13 -12 -27 -20 -30 -8 -3 -14 -13 -14 -21 0 -9 -4 -13 -10 -10 -5 3
-7 0 -4 -8 3 -8 -2 -22 -11 -31 -9 -9 -13 -16 -9 -16 4 0 -6 -12 -22 -26 -16
-15 -22 -23 -14 -18 13 7 13 6 0 -12 -8 -10 -19 -22 -25 -26 -5 -4 -6 -8 -2
-8 5 0 2 -7 -5 -15 -31 -34 -36 -43 -31 -49 4 -3 1 -6 -5 -6 -7 0 -12 -6 -12
-13 0 -17 -36 -47 -46 -39 -4 4 -5 0 -2 -9 4 -10 -3 -23 -18 -34 -13 -10 -24
-24 -24 -31 0 -7 -9 -19 -20 -27 -11 -8 -17 -17 -13 -20 3 -4 0 -7 -7 -7 -7 0
-11 -3 -7 -6 3 -3 -7 -19 -23 -34 -16 -15 -26 -31 -22 -36 4 -4 -1 -4 -11 -1
-10 4 -16 3 -12 -2 3 -5 1 -12 -5 -16 -6 -4 -7 -11 -4 -17 4 -7 2 -8 -4 -4 -7
4 -12 2 -12 -4 0 -6 -5 -8 -10 -5 -6 4 -10 3 -9 -2 3 -20 -2 -34 -11 -28 -5 3
-10 2 -10 -4 0 -6 -16 -26 -35 -45 -19 -20 -35 -40 -35 -46 0 -5 -7 -10 -16
-10 -8 0 -12 -4 -9 -10 3 -5 -2 -10 -11 -10 -10 0 -15 -3 -11 -6 8 -8 -16 -33
-25 -27 -5 2 -8 -3 -8 -12 0 -9 -4 -13 -10 -10 -5 3 -10 -1 -10 -9 0 -9 -7
-16 -15 -16 -8 0 -14 -6 -12 -12 1 -7 -4 -12 -10 -11 -7 2 -13 -4 -13 -12 0
-8 -7 -15 -16 -15 -8 0 -13 -3 -11 -7 3 -5 -1 -14 -9 -21 -8 -7 -14 -10 -14
-7 0 3 -26 -21 -57 -52 -32 -32 -53 -51 -48 -43 4 8 -9 -3 -30 -25 -21 -22
-42 -39 -47 -38 -4 2 -8 -4 -8 -12 0 -8 -4 -15 -9 -15 -6 0 -22 -11 -37 -25
-14 -13 -30 -22 -35 -19 -5 3 -9 -1 -9 -8 0 -7 -10 -18 -22 -23 -13 -6 -22
-17 -20 -24 2 -8 -3 -11 -13 -8 -9 4 -15 1 -15 -9 0 -8 -4 -12 -10 -9 -5 3
-10 -1 -10 -10 0 -9 -5 -13 -11 -9 -6 3 -21 -4 -33 -18 -11 -13 -16 -17 -11
-9 7 11 3 10 -17 -3 -14 -9 -29 -24 -32 -32 -3 -9 -9 -13 -13 -11 -11 7 -33
-19 -25 -29 4 -4 0 -5 -9 -2 -9 4 -22 -2 -30 -13 -7 -10 -22 -19 -32 -19 -10
0 -15 -4 -12 -10 6 -9 -8 -14 -27 -11 -5 0 -8 -6 -8 -15 0 -8 -4 -13 -8 -10
-5 3 -18 -4 -30 -14 -12 -11 -26 -20 -32 -20 -16 0 -40 -26 -32 -34 3 -4 -1
-4 -11 0 -10 3 -17 1 -17 -5 0 -6 -7 -11 -16 -11 -9 0 -12 -5 -8 -12 5 -8 2
-8 -10 1 -15 12 -17 12 -14 0 2 -8 -4 -13 -14 -13 -10 1 -16 -3 -15 -8 1 -6
-4 -13 -12 -16 -9 -3 -11 0 -6 8 5 9 4 11 -3 6 -7 -4 -12 -14 -12 -22 0 -8 -9
-14 -20 -14 -11 0 -20 -5 -20 -11 0 -6 -7 -8 -16 -5 -8 3 -13 2 -10 -2 3 -5
-8 -16 -25 -26 -16 -9 -29 -14 -29 -11 0 4 -7 -1 -16 -9 -8 -9 -21 -16 -28
-16 -8 0 -19 -7 -26 -15 -7 -8 -16 -12 -21 -9 -5 3 -12 -2 -15 -10 -3 -9 -10
-14 -14 -11 -4 3 -20 -5 -36 -17 -16 -13 -25 -16 -20 -8 4 8 -1 6 -11 -5 -10
-11 -24 -20 -30 -21 -29 -2 -34 -4 -28 -13 3 -6 -4 -8 -15 -6 -13 3 -20 -2
-21 -13 0 -10 -3 -12 -6 -5 -3 10 -8 9 -19 -2 -8 -8 -22 -11 -31 -8 -12 5 -15
2 -11 -9 3 -8 1 -15 -5 -16 -7 -1 -22 -3 -35 -5 -13 -2 -27 -9 -32 -16 -4 -8
-13 -10 -19 -7 -6 4 -11 2 -11 -4 0 -6 -4 -8 -10 -5 -5 3 -10 2 -10 -3 0 -9
-32 -24 -58 -26 -7 -1 -16 -6 -20 -11 -4 -6 -14 -11 -22 -13 -8 -2 -16 -7 -18
-12 -2 -5 -9 -7 -17 -4 -7 3 -16 0 -20 -5 -3 -6 -11 -9 -16 -6 -5 4 -9 1 -9
-4 0 -6 -11 -11 -25 -11 -14 0 -28 -7 -32 -16 -5 -13 -7 -13 -14 -2 -7 10 -9
11 -9 0 0 -7 -4 -10 -10 -7 -5 3 -10 1 -10 -5 0 -6 -4 -9 -9 -5 -5 3 -12 1
-16 -5 -4 -6 -10 -8 -15 -5 -4 3 -10 -2 -14 -10 -3 -8 -11 -15 -18 -14 -10 0
-10 2 0 6 6 2 12 10 12 16 -1 7 -9 2 -19 -11 -14 -15 -21 -18 -25 -10 -3 9 -9
7 -20 -6 -9 -11 -16 -16 -16 -10 0 5 -5 2 -10 -6 -8 -13 -10 -13 -10 -1 0 11
-4 10 -16 -5 -8 -10 -13 -13 -9 -6 3 6 2 12 -3 12 -6 0 -13 -8 -16 -17 -6 -15
-8 -15 -16 -3 -8 12 -10 12 -15 -2 -4 -10 -13 -14 -22 -11 -11 4 -14 2 -9 -5
4 -7 -1 -9 -16 -7 -12 3 -31 -3 -42 -13 -15 -13 -18 -13 -12 -2 6 12 5 12 -6
-1 -7 -9 -19 -14 -27 -11 -7 2 -17 -2 -22 -9 -6 -10 -9 -11 -9 -1 0 6 -5 12
-11 12 -5 0 -8 -4 -5 -9 9 -13 -16 -20 -36 -9 -14 7 -16 5 -11 -9 5 -12 2 -15
-10 -10 -9 3 -17 2 -17 -3 0 -5 -9 -7 -20 -5 -11 2 -25 -2 -32 -9 -7 -7 -19
-11 -25 -9 -7 3 -22 -1 -35 -8 -13 -7 -31 -12 -40 -11 -9 2 -30 -4 -46 -12
-16 -8 -32 -13 -35 -10 -3 3 -14 1 -24 -4 -13 -7 -25 -7 -38 1 -19 10 -19 9
-5 -8 14 -17 13 -18 -2 -12 -11 4 -18 2 -18 -6 0 -9 -2 -9 -8 1 -5 7 -16 10
-25 6 -9 -3 -14 -10 -11 -15 3 -5 -2 -6 -11 -2 -10 3 -21 0 -26 -8 -7 -11 -9
-11 -9 -1 0 8 -5 10 -12 5 -18 -11 -32 -10 -40 2 -5 6 -8 3 -8 -7 0 -11 -5
-15 -14 -12 -8 3 -17 1 -21 -5 -3 -6 -11 -11 -16 -11 -6 0 -8 4 -5 9 4 5 -2 8
-11 7 -9 -2 -18 -7 -20 -12 -2 -6 -17 -9 -34 -8 -23 2 -29 -1 -25 -12 4 -10 2
-12 -6 -7 -17 10 -48 11 -48 2 0 -4 -10 -5 -22 -1 -12 3 -19 1 -15 -5 3 -5 0
-10 -8 -10 -8 0 -11 5 -8 11 4 6 0 5 -9 -2 -13 -10 -17 -10 -21 0 -3 8 -6 6
-6 -6 -1 -15 -4 -16 -16 -6 -8 7 -15 8 -15 2 0 -5 -13 -8 -30 -7 -16 1 -27 -1
-24 -6 3 -5 -4 -9 -16 -9 -14 0 -19 4 -15 13 4 6 0 5 -7 -4 -10 -12 -19 -14
-36 -8 -13 5 -21 5 -18 0 3 -5 -2 -12 -11 -15 -9 -4 -20 -1 -25 6 -4 7 -8 8
-8 3 0 -6 -10 -11 -22 -12 -13 -1 -38 -5 -56 -8 -25 -5 -32 -3 -27 5 4 7 -4 5
-18 -5 -18 -11 -27 -13 -32 -5 -5 8 -12 5 -22 -7 -8 -10 -12 -12 -8 -5 7 13
-7 17 -19 5 -11 -11 -58 -15 -52 -4 3 5 -3 7 -14 4 -11 -3 -17 -10 -14 -15 4
-6 -2 -6 -13 1 -11 6 -23 7 -27 4 -10 -10 -66 -9 -66 2 0 6 -3 6 -8 -1 -8 -12
-46 -28 -38 -16 2 4 -8 8 -24 7 -15 0 -26 -4 -23 -9 3 -4 -4 -5 -16 -1 -13 4
-21 2 -21 -6 0 -7 -4 -8 -12 -2 -11 8 -67 10 -75 3 -2 -1 -15 -2 -30 -3 -18
-1 -28 5 -34 21 -5 13 -4 22 2 22 6 0 6 7 -1 20 -8 14 -8 20 0 20 7 0 8 6 1
18 -6 11 -6 24 -1 32 5 9 5 19 -2 27 -6 7 -6 13 -2 13 14 0 7 109 -8 127 -7 9
-8 14 -2 10 15 -9 24 79 10 93 -6 6 -6 10 0 10 10 0 11 51 0 68 -4 7 -2 12 5
12 7 0 5 8 -7 22 -14 15 -15 20 -4 16 11 -4 15 1 15 17 0 13 -3 21 -7 18 -5
-2 -8 1 -8 6 0 6 5 11 11 11 7 0 4 11 -6 26 -9 15 -13 24 -7 20 13 -8 20 82 8
94 -6 6 -6 10 0 10 10 0 11 51 0 68 -4 7 -4 12 1 12 13 0 6 109 -9 127 -7 9
-8 14 -2 10 15 -9 24 79 10 93 -6 6 -6 10 0 10 10 0 11 51 0 68 -4 7 -2 12 5
12 7 0 5 8 -7 22 -14 15 -15 20 -4 16 11 -4 15 1 15 17 0 13 -3 21 -7 18 -5
-2 -8 1 -8 6 0 6 5 11 11 11 7 0 4 11 -6 26 -9 15 -13 24 -7 20 13 -8 20 82 8
94 -7 7 -6 10 1 10 11 0 10 41 -2 59 -3 6 -1 11 5 11 8 0 8 6 0 20 -8 14 -8
20 0 20 8 0 8 6 0 20 -8 14 -8 20 0 20 8 0 8 6 0 20 -8 14 -8 20 0 20 8 0 8 6
0 20 -8 14 -8 20 0 20 8 0 8 6 0 20 -8 14 -8 20 0 20 8 0 8 6 0 20 -8 14 -8
20 0 20 7 0 8 6 2 16 -5 9 -6 33 -2 55 5 28 3 45 -8 60 -9 12 -11 19 -5 16 14
-9 22 80 9 93 -6 6 -6 10 0 10 14 0 8 108 -8 127 -7 9 -8 14 -2 10 15 -9 24
79 10 93 -6 6 -6 10 0 10 14 0 8 108 -8 127 -7 9 -8 14 -2 10 15 -9 24 56 11
78 -5 9 -4 15 3 15 8 0 8 6 0 20 -8 14 -8 20 0 20 8 0 8 6 0 20 -8 14 -8 20 0
20 8 0 8 6 0 20 -8 14 -8 20 0 20 8 0 8 6 0 20 -8 14 -8 20 0 20 8 0 8 6 0 20
-8 14 -8 20 0 20 8 0 8 6 0 20 -8 14 -8 20 0 20 7 0 8 6 1 18 -6 11 -6 24 -1
32 5 9 5 19 -2 27 -6 7 -6 13 -2 13 14 0 7 109 -8 127 -7 9 -8 14 -2 10 15 -9
24 79 10 93 -6 6 -6 10 0 10 10 0 11 51 0 68 -4 7 -2 12 5 12 7 0 5 8 -7 22
-14 15 -15 20 -4 16 11 -4 15 1 15 17 0 13 -3 21 -7 18 -5 -2 -8 1 -8 6 0 6 5
11 11 11 7 0 4 11 -6 26 -9 15 -13 24 -7 20 13 -8 20 82 8 94 -6 6 -6 10 0 10
10 0 11 51 0 68 -4 7 -4 12 1 12 13 0 6 109 -9 127 -7 9 -8 14 -2 10 15 -9 24
79 10 93 -6 6 -6 10 0 10 10 0 11 51 0 68 -4 7 -2 12 5 12 7 0 5 8 -7 22 -14
15 -15 20 -4 16 11 -4 15 1 15 17 0 13 -3 21 -7 18 -5 -2 -8 1 -8 6 0 6 5 11
11 11 7 0 4 11 -6 26 -9 15 -13 24 -7 20 13 -8 20 82 8 94 -7 7 -6 10 0 10 10
0 11 87 0 97 -3 3 0 13 7 21 9 13 9 14 0 8 -7 -4 -13 -4 -14 1 0 4 -2 25 -3
47 -2 21 -9 42 -17 47 -8 5 -9 9 -4 9 6 0 3 5 -5 10 -13 8 -13 10 0 10 10 0 7
5 -8 16 -12 8 -20 19 -18 23 3 4 -4 13 -14 21 -10 8 -16 18 -13 23 3 6 1 7 -5
3 -6 -3 -22 5 -36 19 -14 14 -32 25 -41 25 -9 0 -14 4 -11 8 2 4 -5 9 -17 9
-12 1 -23 7 -25 13 -3 8 -8 7 -18 -1 -11 -9 -14 -9 -14 0 0 8 -11 10 -30 7
-21 -3 -28 -1 -24 7 5 8 2 8 -7 0 -14 -14 -30 -17 -27 -5 2 4 -1 7 -7 7 -5 0
-9 -3 -8 -6 3 -8 -70 -4 -85 5 -6 4 -12 3 -12 -2 0 -9 -47 -8 -57 1 -2 3 -18
1 -34 -3 -20 -6 -29 -5 -29 3 0 8 -3 8 -9 -1 -6 -11 -10 -10 -15 5 -7 17 -8
17 -22 -1 -10 -14 -14 -16 -14 -5 0 8 -3 10 -8 4 -8 -12 -101 -13 -119 -2 -7
5 -13 4 -13 -1 0 -9 -47 -8 -57 1 -2 3 -18 1 -34 -3 -20 -6 -29 -5 -29 3 0 8
-3 7 -9 -2 -7 -11 -9 -11 -14 0 -3 8 -6 10 -6 4 -1 -16 -131 -10 -142 6 -7 12
-9 11 -9 -1 0 -21 -53 -20 -62 0 -5 11 -7 10 -7 -5 -1 -17 -3 -17 -11 -5 -5 8
-10 11 -10 5 0 -5 -11 -10 -24 -10 -19 0 -22 3 -14 13 8 9 7 11 -6 6 -9 -3
-16 -11 -16 -16 0 -6 -6 -5 -15 2 -8 7 -15 8 -15 3 0 -10 -47 -9 -57 0 -2 3
-18 1 -34 -3 -20 -6 -29 -5 -29 3 0 7 -4 6 -10 -3 -9 -13 -10 -13 -10 0 0 9
-3 11 -8 5 -4 -5 -17 -10 -29 -11 -18 0 -20 2 -11 13 8 11 7 12 -6 7 -9 -3
-16 -9 -16 -13 0 -12 -72 -4 -81 10 -7 11 -9 11 -9 -3 0 -10 -3 -18 -6 -18 -4
0 -13 8 -20 18 -10 12 -13 13 -9 2 8 -22 -134 -22 -153 0 -10 13 -11 12 -5 -4
4 -12 2 -17 -4 -13 -16 10 -64 16 -58 7 3 -4 -3 -7 -12 -5 -10 2 -22 4 -26 4
-5 1 -5 7 -1 14 6 9 5 9 -8 0 -8 -7 -19 -9 -24 -5 -4 4 -2 -2 6 -12 14 -18 14
-18 -5 -9 -11 6 -46 10 -78 9 -43 -1 -61 3 -68 14 -7 13 -8 13 -9 0 0 -21 -53
-20 -62 0 -5 11 -7 10 -7 -5 -1 -17 -3 -17 -11 -5 -5 8 -10 11 -10 5 0 -5 -11
-10 -24 -10 -18 0 -22 3 -14 13 14 17 3 15 -15 -2z m2183 -950 c0 -3 -4 -8
-10 -11 -5 -3 -10 -1 -10 4 0 6 5 11 10 11 6 0 10 -2 10 -4z m0 -640 c0 -3 -4
-8 -10 -11 -5 -3 -10 -1 -10 4 0 6 5 11 10 11 6 0 10 -2 10 -4z m0 -560 c0 -3
-4 -8 -10 -11 -5 -3 -10 -1 -10 4 0 6 5 11 10 11 6 0 10 -2 10 -4z m4360 -180
c0 -3 -4 -8 -10 -11 -5 -3 -10 -1 -10 4 0 6 5 11 10 11 6 0 10 -2 10 -4z
m-4360 -60 c0 -3 -4 -8 -10 -11 -5 -3 -10 -1 -10 4 0 6 5 11 10 11 6 0 10 -2
10 -4z m0 -1120 c0 -3 -4 -8 -10 -11 -5 -3 -10 -1 -10 4 0 6 5 11 10 11 6 0
10 -2 10 -4z m0 -640 c0 -3 -4 -8 -10 -11 -5 -3 -10 -1 -10 4 0 6 5 11 10 11
6 0 10 -2 10 -4z m0 -1920 c0 -3 -4 -8 -10 -11 -5 -3 -10 -1 -10 4 0 6 5 11
10 11 6 0 10 -2 10 -4z m0 -560 c0 -3 -4 -8 -10 -11 -5 -3 -10 -1 -10 4 0 6 5
11 10 11 6 0 10 -2 10 -4z m0 -240 c0 -3 -4 -8 -10 -11 -5 -3 -10 -1 -10 4 0
6 5 11 10 11 6 0 10 -2 10 -4z m0 -1120 c0 -3 -4 -8 -10 -11 -5 -3 -10 -1 -10
4 0 6 5 11 10 11 6 0 10 -2 10 -4z m0 -560 c0 -3 -4 -8 -10 -11 -5 -3 -10 -1
-10 4 0 6 5 11 10 11 6 0 10 -2 10 -4z m0 -240 c0 -3 -4 -8 -10 -11 -5 -3 -10
-1 -10 4 0 6 5 11 10 11 6 0 10 -2 10 -4z"/>
<path d="M10776 14152 c-3 -5 1 -9 9 -9 8 0 12 4 9 9 -3 4 -7 8 -9 8 -2 0 -6
-4 -9 -8z"/>
<path d="M16536 14152 c-3 -5 1 -9 9 -9 8 0 12 4 9 9 -3 4 -7 8 -9 8 -2 0 -6
-4 -9 -8z"/>
<path d="M16856 14152 c-3 -5 1 -9 9 -9 8 0 12 4 9 9 -3 4 -7 8 -9 8 -2 0 -6
-4 -9 -8z"/>
<path d="M17816 14152 c-3 -5 1 -9 9 -9 8 0 12 4 9 9 -3 4 -7 8 -9 8 -2 0 -6
-4 -9 -8z"/>
<path d="M12445 13870 c-3 -5 -1 -10 4 -10 6 0 11 5 11 10 0 6 -2 10 -4 10 -3
0 -8 -4 -11 -10z"/>
<path d="M7750 13850 c0 -5 5 -10 11 -10 5 0 7 5 4 10 -3 6 -8 10 -11 10 -2 0
-4 -4 -4 -10z"/>
<path d="M7586 13525 c-11 -8 -15 -15 -9 -15 6 0 16 7 23 15 16 19 11 19 -14
0z"/>
<path d="M6219 12173 c-13 -16 -12 -17 4 -4 16 13 21 21 13 21 -2 0 -10 -8
-17 -17z"/>
<path d="M2386 7997 c3 -10 9 -15 12 -12 3 3 0 11 -7 18 -10 9 -11 8 -5 -6z"/>
<path d="M4680 7711 c0 -6 4 -13 10 -16 6 -3 7 1 4 9 -7 18 -14 21 -14 7z"/>
<path d="M6426 4748 c3 -5 10 -6 15 -3 13 9 11 12 -6 12 -8 0 -12 -4 -9 -9z"/>
</g>
</svg>
