<svg xmlns="http://www.w3.org/2000/svg" baseProfile="full" version="1.1" width="1470px" height="585px" style="fill: none; width: 1470px; height: 585px;"><path d="" style="stroke-width: 15; stroke-linecap: round; stroke-linejoin: round; stroke: rgb(106, 106, 106); fill: none;"/><path d="" style="stroke-width: 15; stroke-linecap: round; stroke-linejoin: round; stroke: rgb(74, 74, 74); fill: none;"/><path d="M210,60 L210,480 M135,60 L210,60 M135,480 L135,480 L210,480 M210,60 L210,60 L450,60 Q210,255 450,480 L450,480 L375,480 M660,60 L660,60 L660,480 L660,480 L570,480 M570,60 L570,60 L660,60 M660,255 A255,195 0 0,0 915,60 M840,60 L840,60 L915,60 " style="stroke-width: 29; stroke-linecap: round; stroke-linejoin: round; stroke: rgb(10, 10, 10); fill: none;"/></svg>